<?xml version="1.0" standalone="no"?>
<!DOCTYPE svg PUBLIC "-//W3C//DTD SVG 1.1//EN" "http://www.w3.org/Graphics/SVG/1.1/DTD/svg11.dtd" >
<svg xmlns="http://www.w3.org/2000/svg">
<metadata>Generated by IcoMoon</metadata>
<defs>
<font id="icomoon" horiz-adv-x="1024">
<font-face units-per-em="1024" ascent="896" descent="-128" />
<missing-glyph horiz-adv-x="1024" />
<glyph unicode="&#x20;" horiz-adv-x="0" d="" />
<glyph unicode="&#xe600;" glyph-name="kujialeqiyezhan_shejiwaibao" d="M779.2 476.8c-0.34 136.71-111.243 247.403-247.999 247.403-99.622 0-185.525-58.741-224.962-143.476l-0.638-1.528c-93.621-15.507-164.137-95.875-164.137-192.713 0-101.94 78.142-185.629 177.795-194.435l0.742-0.053c8.837 0 16 7.163 16 16s-7.163 16-16 16v0c-83.694 7.666-148.741 77.516-148.741 162.558 0 83.912 63.329 153.032 144.799 162.174l0.742 0.068c6.417 0.11 11.904 3.981 14.36 9.498l0.040 0.102c33.064 79.52 110.121 134.416 200 134.416 119.294 0 216-96.706 216-216 0-0.006 0-0.011 0-0.017v0.001-14.4c-0.056-0.501-0.088-1.083-0.088-1.672 0-8.304 6.326-15.13 14.422-15.923l0.066-0.005c57.94-4.718 103.174-52.902 103.174-111.652 0-4.634-0.281-9.201-0.828-13.687l0.054 0.539c-8.801-54.733-55.694-96.039-112.234-96.039-1.043 0-2.082 0.014-3.118 0.042l0.153-0.003h-44.8c-8.837 0-16-7.163-16-16s7.163-16 16-16v0h46.4c0.11 0 0.24 0 0.37 0 72.82 0 133.29 52.878 145.108 122.331l0.122 0.869c1.082 6.593 1.7 14.192 1.7 21.936 0 34.283-12.115 65.737-32.298 90.313l0.198-0.248c-21.522 25.614-51.473 43.53-85.538 49.475l-0.862 0.125zM617.6 235.2l89.6 89.6c2.828 2.884 4.574 6.838 4.574 11.2s-1.746 8.316-4.576 11.203l-81.597 81.597c-2.884 2.828-6.838 4.574-11.2 4.574s-8.316-1.746-11.203-4.576l-89.597-89.597-81.6 81.6c-2.884 2.828-6.838 4.574-11.2 4.574s-8.316-1.746-11.203-4.576l-81.597-81.597c-2.828-2.884-4.574-6.838-4.574-11.2s1.746-8.316 4.576-11.203l-0.003 0.003 60.8-65.6c2.95-3.904 7.583-6.4 12.8-6.4 8.837 0 16 7.163 16 16 0 3.62-1.202 6.959-3.229 9.64l0.029-0.040 20.8 20.8c1.998 2.641 3.2 5.98 3.2 9.6 0 8.837-7.163 16-16 16-3.62 0-6.959-1.202-9.64-3.229l0.040 0.029-20.8-20.8h-1.6l22.4 22.4c1.998 2.641 3.2 5.98 3.2 9.6 0 8.837-7.163 16-16 16-3.62 0-6.959-1.202-9.64-3.229l0.040 0.029-24-17.6-8 8 60.8 60.8 70.4-70.4-134.4-134.4c-2.301-2.083-3.986-4.807-4.776-7.889l-0.024-0.111-20.8-102.4c-0.206-0.963-0.324-2.069-0.324-3.203 0-8.837 7.163-16 16-16 0.114 0 0.228 0.001 0.341 0.004h3.183l102.4 20.8 8 4.8 134.4 134.4 70.4-70.4-60.8-60.8-6.4 6.4 22.4 22.4c1.998 2.641 3.2 5.98 3.2 9.6 0 8.837-7.163 16-16 16-3.62 0-6.959-1.202-9.64-3.229l0.040 0.029-20.8-24-4.8 4.8 20.8 20.8c1.998 2.641 3.2 5.98 3.2 9.6 0 8.837-7.163 16-16 16-3.62 0-6.959-1.202-9.64-3.229l0.040 0.029-24-24c-0.826 0.151-1.776 0.237-2.746 0.237-4.59 0-8.729-1.933-11.647-5.029l-0.007-0.008c-2.828-2.884-4.574-6.838-4.574-11.2s1.746-8.316 4.576-11.203l-0.003 0.003 64-59.2c2.884-2.828 6.838-4.574 11.2-4.574s8.316 1.746 11.203 4.576l81.597 81.597c2.828 2.884 4.574 6.838 4.574 11.2s-1.746 8.316-4.576 11.203l0.003-0.003zM614.4 396.8l59.2-60.8-28.8-28.8-59.2 60.8zM441.6 104l-75.2-14.4 14.4 75.2 182.4 180.8 59.2-59.2z" />
<glyph unicode="&#xe601;" glyph-name="gongzuotai-pingtaitubiao" d="M824-128h-624c-110.5 0-200 89.5-200 200v624c0 110.5 89.5 200 200 200h624c110.5 0 200-89.5 200-200v-624c0-110.5-89.5-200-200-200zM712.7 202.4h-399.8c-41.4 0-75.1 33.7-75.1 75.1h549.9c0.1-41.6-33.6-75.1-75-75.1zM764 181h-502.1c-22 0-40 18-40 40v413c0 22 18 40 40 40h502.1c22 0 40-18 40-40v-413c0-22-18-40-40-40zM362 71c0-16.569 67.157-30 150-30s150 13.431 150 30v0c0 16.569-67.157 30-150 30s-150-13.431-150-30v0zM502 171h20v-80h-20zM268 619h288v-156h-288zM588 619h163v-156h-163zM268 427.5h484v-200.5h-484z" />
<glyph unicode="&#xe602;" glyph-name="ren" d="M510.238 877.242c-157.525 0-285.671-128.151-285.671-285.677 0-114.080 67.367-212.466 164.27-258.22-179.148-52.611-310.438-218.241-310.438-414.179 0-12.47 10.106-22.566 22.566-22.566s22.566 10.097 22.566 22.566c0 213.236 173.495 386.723 386.706 386.723 157.525 0 285.682 128.151 285.682 285.677s-128.157 285.677-285.682 285.677v0zM510.238 351.022c-132.642 0-240.538 107.913-240.538 240.543 0 132.638 107.895 240.543 240.538 240.543 132.647 0 240.549-107.906 240.549-240.543 0-132.638-107.895-240.543-240.549-240.543v0zM772.185 262.54c-9.921 7.559-24.066 5.686-31.623-4.231-7.579-9.916-5.686-24.062 4.228-31.644 96.703-73.893 152.149-185.978 152.149-307.492 0-12.475 10.111-22.572 22.567-22.572 12.47 0 22.566 10.097 22.566 22.572 0 135.707-61.924 260.859-169.888 343.369v0z" />
<glyph unicode="&#xe603;" glyph-name="gongsi-pingtaitubiao" d="M824-128h-624c-110.5 0-200 89.5-200 200v624c0 110.5 89.5 200 200 200h624c110.5 0 200-89.5 200-200v-624c0-110.5-89.5-200-200-200zM779 98.2v589.2l-93.2 81.1-310-115.8v-29l281.5 94.9v-662.9h187.5v42.5zM274.9 279.7l147.6 29.5v74.9l-147.6-38.8zM274.9 54.7h147.6v78.6l-147.6-10.7zM274.9 167.5l147.6 14.3v74.8l-147.6-24.8zM274.9 394l147.6 40.6v77.8l-147.6-49.9zM586.3 587.5l-83.4 50.6-313.9-113.2-0.1-471.8h41.3v449l234.9 77.4v-524h121.2z" />
<glyph unicode="&#xe604;" glyph-name="renwuxuanshang-pingtaitubiao" d="M823.839-127.8h-623.878c-110.478 0-199.961 89.483-199.961 199.961v623.878c0 110.478 89.483 199.961 199.961 199.961h623.878c110.478 0 199.961-89.483 199.961-199.961v-623.878c0-110.378-89.483-199.961-199.961-199.961zM126.475 690.84v-40.792h96.281v-441.314l300.741-190.263 283.945 190.163v441.414h93.882v40.792h-774.849zM766.65 231.13l-1.1-0.7-242.453-164.068-1.3 0.7-258.25 164.868v418.118h503.102v-418.918zM329.236 502.377h369.228v-40.792h-369.228v40.792zM329.236 391.399h369.228v-40.792h-369.228v40.792zM329.236 391.399" />
<glyph unicode="&#xe605;" glyph-name="yishuguangchang-pingtaitubiao" d="M824-128h-624c-110.5 0-200 89.5-200 200v624c0 110.5 89.5 200 200 200h624c110.5 0 200-89.5 200-200v-624c0-110.5-89.5-200-200-200zM908.3 502.2c-13.1 46.7-68.3 77.9-147.3 91.6 11.9-14.2 22.2-29 31.9-44.4 43.8-12.5 73.4-32.4 80.2-56.3 4-14.2 0.6-30.7-10.2-48.9-11.4-19.9-32.4-42.7-61.4-64.9v4.6c0 160.4-130.3 290.7-290.7 290.7s-290.8-130.3-290.8-290.7c0-47.2 11.4-93.9 33.6-136-57.5 11.9-96.7 34.1-105.2 62.6-2.3 13.1 1.1 29.6 11.4 47.8 5.7 10.2 14.8 21 25 31.9 0.6 18.8 2.3 37 5.7 55.2-58.6-47.8-88.2-100.1-75.7-145.6 14.2-50.6 77.4-83.1 166.7-94.4 52.8-69 136.4-113.4 229.7-113.4 142.8 0 261.1 102.4 285.6 237.8 82.5 54.6 126.9 117.8 111.5 172.4zM511.8 128.4c-66.6 0-130.8 26.2-178.1 73.4 6.3 0 12.5-0.6 18.8-0.6 63.1 0 134.3 9.1 207.6 27.9 72.8 18.8 138.8 44.9 193.4 74.5-33.5-101.8-129.1-175.2-241.7-175.2zM763.8 352c-53.5-33.6-125.2-65.4-212.8-87.6-68.3-17.6-136.5-26.7-199.1-26.7-18.2 0-34.7-1.7-51.2 0-27.9 41-43.8 92.7-43.8 145.6 0 140.5 113.8 254.3 254.3 254.3s254.3-113.8 254.3-254.3c0.6-10.8-0.5-21-1.7-31.3zM384.4 309.9c-29.6 0-55.8 17.6-67.1 44.9-11.4 27.3-5.1 58.6 15.9 79.1 21 21 51.8 26.7 79.1 15.9 27.3-11.4 44.9-37.5 44.9-67.1 0-40.3-32.4-72.8-72.8-72.8zM384.4 419.2c-14.8 0-27.9-9.1-33.6-22.2-5.7-13.7-2.3-29 8-39.8 10.2-10.2 26.2-13.7 39.8-8 13.7 5.7 22.2 18.8 22.2 33.6 0 19.9-16.5 36.4-36.4 36.4zM539.1 509.6c-18.2 0-34.7 10.8-42.1 27.9-6.8 17.1-3.4 36.4 9.7 49.5s32.4 17.1 49.5 9.7c17.1-6.8 27.9-23.9 27.9-42.1 0.5-24.5-20-45-45-45zM539.1 564.2c-4 0-8-2.8-8.5-6.8-1.1-4 0.6-8 4-10.2 3.4-2.3 8-1.7 10.8 1.7 2.8 2.8 3.4 6.3 1.7 9.7-1.2 3.3-4.6 5.6-8 5.6zM638.7 346.3c-14.8 0-27.9 9.1-33.6 22.2-5.7 13.7-2.3 29 8 39.8 10.2 10.2 26.2 13.7 39.8 8 13.7-5.7 22.2-18.8 22.2-33.6 0-9.7-4-18.8-10.8-25.6-6.3-6.8-16-10.8-25.6-10.8zM638.7 346.3" />
<glyph unicode="&#xe606;" glyph-name="xiangmufuzeren" d="M687.897 838.194h-351.794c-21.471 0-40.465-7.432-49.548-20.645s-6.606-28.903 4.955-42.116l85.884-94.968c16.516-18.168 48.723-31.381 77.626-31.381h111.484c28.903 0 61.11 13.213 77.626 31.381l85.884 94.968c12.387 14.039 14.039 29.729 4.955 42.116-6.606 13.213-25.6 20.645-47.071 20.645zM544.206 516.955h1.652l139.561-364.181-173.419-140.387-173.419 140.387 139.561 364.181h66.065M544.206 599.535h-64.413c-33.032 0-65.239-18.168-74.323-42.116l-151.123-393.91c-8.258-21.471 0.826-49.548 20.645-65.239l189.11-152.774c12.387-9.91 29.729-15.69 47.897-15.69s35.51 5.781 47.897 15.69l189.11 152.774c20.645 16.516 28.903 43.768 20.645 65.239l-151.123 393.91c-9.084 23.948-41.29 42.116-74.323 42.116z" />
<glyph unicode="&#xe607;" glyph-name="goutong" d="M318.225-63.433h-0.013c-12.861 0-24.985 6.185-32.412 16.547-7.004 9.775-9.161 21.981-6.089 33.955l8.028 62.339h-171.674c-30.296 0-54.953 24.657-54.953 54.954v397.371c0 30.296 24.657 54.953 54.953 54.953h614.877c30.296 0 54.953-24.657 54.953-54.953v-397.371c0-30.296-24.657-54.954-54.953-54.954h-246.314l-142.591-105.305c-0.68-0.512-1.46-1.035-2.267-1.516l-0.122-0.068c-6.595-3.891-13.994-5.953-21.422-5.953zM319.535 105.332c0.003 0 0.007 0 0.010 0 8.35 0 15.843-3.664 20.961-9.472l0.026-0.031c4.322-4.897 6.961-11.37 6.961-18.459 0-1.261-0.084-2.503-0.245-3.72l0.015 0.143-8.014-62.231 119.559 88.294c4.581 3.419 10.354 5.475 16.608 5.475 0.003 0 0.006 0 0.008 0h255.516l-0.97 396.401-613.907-0.97 0.97-396.401 202.501 0.971zM905.7 290.071h-59.814v55.923h56.291v352.699h-524.275v-60.701h-55.923v64.224c0 28.89 23.51 52.4 52.4 52.4h531.321c28.89 0 52.4-23.51 52.4-52.4v-359.743c0-28.891-23.51-52.401-52.4-52.401z" />
<glyph unicode="&#xe608;" glyph-name="tongji" horiz-adv-x="1025" d="M534.754 895.36h-20.468v-468.719c0-7.685 2.558-12.805 7.676-17.929 5.114-5.119 12.792-7.685 17.912-7.685h483.583v20.494c2.557 266.375-214.926 473.839-488.703 473.839v0zM555.222 442.010v412.366c235.399-10.244 417.061-186.973 427.299-412.366h-427.299zM486.143-126.6c271.214 0 493.818 212.59 493.818 476.405v20.489h-498.938v484.083h-20.466c-253.31-0.001-460.559-225.391-460.559-502.012 0-268.937 214.924-478.965 486.145-478.965v0zM437.525 810.835v-458.469c0-7.684 2.563-12.805 7.677-17.928 5.118-5.124 12.795-7.687 17.91-7.687h473.35c-10.235-227.958-209.807-412.368-450.32-412.368-248.19 0-445.205 192.095-445.205 437.982s176.543 448.226 396.588 458.47v0z" />
<glyph unicode="&#xe609;" glyph-name="pencil" d="M0 384c0-282.77 229.23-512 512-512s512 229.23 512 512v0c0 282.77-229.23 512-512 512s-512-229.23-512-512v0zM790.4 832l-86.4-86.4 174.4-172.8 86.4 86.4zM412.8 459.2l-284.8-281.6 174.4-172.8 552 545.6-174.4 172.8zM83.2 35.2l75.2-73.6 110.4 28.8-156.8 155.2zM790.4 876.8l-699.2-691.2-78.4-294.4 292.8 75.2 4.8 1.6 699.2 691.2-219.2 217.6zM158.4-38.4l-75.2 73.6 28.8 110.4 156.8-155.2-110.4-28.8zM302.4 4.8l-174.4 172.8 552 545.6 174.4-172.8-552-545.6zM704 745.6l86.4 86.4 174.4-172.8-86.4-86.4-174.4 172.8z" />
<glyph unicode="&#xe60a;" glyph-name="applications" d="M1008.302 589.443l-218.611-218.611c-20.13-20.13-52.741-20.13-72.87 0l-218.582 218.611c-20.13 20.101-20.13 52.741 0 72.842l218.582 218.611c20.13 20.13 52.741 20.13 72.87 0l218.611-218.611c20.13-20.101 20.13-52.741 0-72.842zM753.669 841.177l-215.711-215.711 215.711-215.711 215.711 215.711-215.711 215.711zM369.842-127.972h-312.748c-31.417 0-56.863 25.446-56.863 56.863v312.748c0 31.388 25.446 56.863 56.863 56.863h312.748c31.388 0 56.863-25.475 56.863-56.863v-312.748c0-31.417-25.475-56.863-56.863-56.863zM369.842 241.639h-312.748v-312.748h312.748v312.748zM369.842 383.797h-312.748c-31.417 0-56.863 25.446-56.863 56.863v312.748c0 31.388 25.446 56.863 56.863 56.863h312.748c31.388 0 56.863-25.475 56.863-56.863v-312.748c0-31.417-25.475-56.863-56.863-56.863zM369.842 753.408h-312.748v-312.748h312.748v312.748zM568.863 298.503h312.748c31.388 0 56.863-25.475 56.863-56.863v-312.748c0-31.417-25.475-56.863-56.863-56.863h-312.748c-31.417 0-56.863 25.446-56.863 56.863v312.748c0 31.388 25.446 56.863 56.863 56.863zM568.863-71.108h312.748v312.748h-312.748v-312.748z" />
<glyph unicode="&#xe60b;" glyph-name="tuandui1" horiz-adv-x="1157" d="M25.823-93.162c-0.015 0-0.033 0-0.051 0-13.88 0-25.133 11.252-25.133 25.133 0 2.215 0.286 4.362 0.824 6.408l-0.039-0.175c35.996 139.13 149.304 236.166 275.634 236.166 13.935 0 25.155-11.242 25.155-25.155 0-13.958-11.219-25.177-25.155-25.177-103.357 0-196.653-81.564-226.994-198.478-2.961-11.242-13.156-18.699-24.264-18.699zM277.059 123.392c-149.281 0-270.603 122.591-270.603 273.453 0 139.62 103.357 256.423 240.551 271.783 0.832 0.098 1.795 0.153 2.771 0.153 13.879 0 25.13-11.251 25.13-25.13 0-12.902-9.724-23.534-22.243-24.966l-0.116-0.011c-111.638-12.511-195.896-107.876-195.896-221.83 0-123.103 98.838-223.277 220.405-223.277 0.315 0.014 0.685 0.022 1.057 0.022 13.868 0 25.11-11.242 25.11-25.11s-11.242-25.11-25.11-25.11c-0.372 0-0.742 0.008-1.109 0.024l0.052-0.002zM1131.364-93.162c-0.025 0-0.055 0-0.084 0-11.611 0-21.369 7.937-24.142 18.682l-0.038 0.173c-30.186 116.781-123.481 198.478-226.994 198.478-13.935 0-25.155 11.219-25.155 25.155s11.219 25.155 25.155 25.155c126.353 0 239.638-97.035 275.656-236.010 0.501-1.875 0.789-4.028 0.789-6.248 0-11.653-7.931-21.454-18.69-24.299l-0.175-0.039c-1.829-0.664-3.939-1.047-6.139-1.047-0.064 0-0.128 0-0.192 0.001h0.010zM880.106 123.392c-13.935 0-25.155 11.219-25.155 25.155s11.219 25.155 25.155 25.155c121.567 0 220.427 100.174 220.427 223.277 0 113.931-84.28 209.43-195.896 221.83-12.629 1.443-22.347 12.069-22.347 24.966 0 13.873 11.246 25.119 25.119 25.119 0.976 0 1.94-0.056 2.887-0.164l-0.116 0.011c137.171-15.36 240.551-132.274 240.551-271.894 0-150.862-121.433-273.453-270.625-273.453zM921.8-117.916c-11.242 0-21.304 7.457-24.264 18.699-23.485 89.934-75.242 166.979-145.586 216.932-6.423 4.594-10.56 12.029-10.56 20.43 0 5.445 1.738 10.485 4.689 14.594l-0.051-0.075c4.593 6.438 12.036 10.585 20.448 10.585 5.447 0 10.488-1.739 14.598-4.693l-0.075 0.051c80.006-56.765 138.596-143.872 165.176-245.181 0.513-1.9 0.807-4.082 0.807-6.332 0-11.624-7.857-21.413-18.55-24.347l-0.177-0.041c-1.925-0.38-4.152-0.614-6.429-0.645h-0.027zM235.386-117.805c-2.247 0.005-4.425 0.289-6.505 0.819l0.183-0.040c-10.884 2.937-18.762 12.722-18.762 24.346 0 2.266 0.299 4.461 0.86 6.55l-0.040-0.176c45.946 175.238 184.921 300.41 345.845 311.385 13.557 0.89 25.823-9.572 26.713-23.374s-9.55-25.8-23.352-26.713c-139.509-9.416-260.296-119.608-300.678-273.965-2.897-10.892-12.653-18.793-24.26-18.833h-0.004zM578.515 334.514c-0.146 0-0.319-0.001-0.493-0.001-44.601 0-85.787 14.623-119.025 39.336l0.533-0.379c-2.813 2.324-4.592 5.813-4.592 9.717 0 6.946 5.631 12.577 12.577 12.577 2.552 0 4.927-0.76 6.91-2.066l-0.047 0.029c18.727-13.891 40.941-24.28 65.035-29.698l1.168-0.221c11.418-2.591 24.53-4.076 37.99-4.076 12.778 0 25.244 1.338 37.264 3.882l-1.17-0.207c54.173 11.881 98.27 47.284 121.749 94.71l0.463 1.034c2.096 4.219 6.375 7.068 11.321 7.068 1.978 0 3.85-0.456 5.517-1.269l-0.075 0.033c6.189-2.983 8.904-10.596 5.788-16.785-23.537-47.612-63.849-83.947-113.035-101.754l-1.408-0.446c-6.801-2.498-15.228-4.9-23.864-6.738l-1.291-0.23c-12.184-2.873-26.173-4.521-40.546-4.521-0.271 0-0.541 0.001-0.812 0.002h0.042zM578.515 174.481c-198.723 0-360.403 161.703-360.403 360.448-0.022 198.723 161.658 360.403 360.381 360.403 198.745 0 360.448-161.703 360.448-360.426 0-198.745-161.703-360.448-360.448-360.448zM578.515 845.156c-170.963 0-310.094-139.242-310.094-310.227s139.13-310.25 310.227-310.25c171.119 0 310.227 139.13 310.227 310.25s-139.242 310.227-310.361 310.227z" />
<glyph unicode="&#xe60c;" glyph-name="qingchu" d="M763.2 530.7l188.2 187.8c27.2 27.1 27.2 71.1 0.1 98.3-27.1 27.1-71 27.1-98.2 0.1l-188.4-188c-2.5-0.3-4.3-0.5-6.8-0.8-72.4 42-156.3 41.8-220.8-19.8-1.9-1.8-2-5.1-0.1-7l298.4-298.4c1.9-1.9 5.2-1.8 7 0.1 61.5 64.6 61.7 148.4 19.8 220.8 0.2 2.6 0.5 4.3 0.8 6.9zM260.9 682.3c0-32.806 26.594-59.4 59.4-59.4s59.4 26.594 59.4 59.4v0c0 32.806-26.594 59.4-59.4 59.4s-59.4-26.594-59.4-59.4v0zM620.7 25.9c0-41.090 33.31-74.4 74.4-74.4s74.4 33.31 74.4 74.4v0c0 41.090-33.31 74.4-74.4 74.4s-74.4-33.31-74.4-74.4v0zM786.4 104.5c0-22.368 18.132-40.5 40.5-40.5s40.5 18.132 40.5 40.5v0c0 22.368-18.132 40.5-40.5 40.5s-40.5-18.132-40.5-40.5v0zM384.2 553.4l297.5-297.4c2.2-2.2 2.7-5.5 1.1-8.2-16.1-25.7-97.2-161.9-118.9-341.9-0.2-1.5-1.8-2.3-3.1-1.6l-101 60.9c-0.9 0.6-1.3 1.7-0.8 2.7 9.5 19.9 100.4 210.3 91.1 201-9.8-9.8-72.7-76.6-119.8-144.9l-27.1-37.3s-106.3 71.5-139.1 116c-0.5 0.7-0.6 1.3 0 1.9 21.6 26.2 134 172.3 134 172.3l-191.1-114.6c-0.9-0.5-1.9-0.4-2.6 0.4-9.3 10.3-73.1 80.8-91.5 113.9-0.4 0.7-0.4 1.3 0.3 1.9 18.2 14.7 121.1 101.9 121.1 101.9l-144.9-51.3c-1-0.3-2.1 0.1-2.6 1l-53.6 100.6c-0.7 1.2-0.2 2.7 1.2 3 25.5 5.1 238.3 49.3 341.6 120.6 2.6 1.8 6 1.4 8.2-0.9z" />
<glyph unicode="&#xe60d;" glyph-name="g-status-zanting" d="M512 896c-283.2 0-512-228.8-512-512s228.8-512 512-512 512 228.8 512 512-228.8 512-512 512zM460.8 179.2h-102.4v409.6h102.4v-409.6zM665.6 179.2h-102.4v409.6h102.4v-409.6z" />
<glyph unicode="&#xe60e;" glyph-name="guangchang" horiz-adv-x="1408" d="M1402.961 594.522c-23.238 82.49-120.44 137.632-259.017 160.846 19.697-23.141 38.138-48.793 54.404-75.898l1.447-2.601c77.223-22.222 129.508-56.678 141.694-99.587 7.085-24.915 0.992-54.127-17.806-86.622-20.357-35.187-56.843-74.649-107.829-114.253 0 2.55 0.425 4.983 0.425 7.557 0 282.798-229.238 512.035-512.035 512.035s-512.13-229.238-512.13-512.035c0-0.152 0-0.332 0-0.512 0-87.457 22.040-169.766 60.869-241.676l-1.334 2.701c-101.288 20.64-170.671 59.7-184.911 110.262-7.085 24.938-0.992 53.985 17.806 86.622 10.249 17.665 25.977 36.746 44.161 56.134 0.723 34.977 4.429 68.61 10.879 101.258l-0.606-3.678c-103.578-84.757-156.454-176.74-133.783-257.576 25.080-89.315 136.758-146.748 293.968-165.971 93.683-121.101 240.006-199.529 404.962-199.529 251.035 0 459.467 180.778 503.203 419.273 144.056 96.187 222.531 207.44 195.609 303.178zM704.149-64.096c-0.201 0-0.44-0.001-0.678-0.001-122.205 0-232.925 49.175-313.451 128.817l0.040-0.040c10.958-0.283 21.797-0.567 33.062-0.567 111.277 0 236.795 15.681 366.043 48.719 128.54 32.92 244.446 78.924 340.538 131.657-58.709-179.243-226.711-308.586-425.555-308.586zM1148.502 329.53c-94.014-59.039-220.24-115.103-375.112-154.706-119.826-30.7-240.88-46.735-350.197-46.735-31.621 0-61.259-2.692-89.905-0.142-48.719 71.65-77.223 162.83-77.223 256.018 0 247.469 200.615 448.061 448.061 448.061s448.084-200.592 448.084-448.061c-0.254-19.465-1.603-38.335-3.988-56.879l0.257 2.445zM480.178 255.873c-0.007 0-0.015 0-0.024 0-70.665 0-127.95 57.285-127.95 127.95s57.285 127.95 127.95 127.95c70.665 0 127.95-57.285 127.95-127.95v0c-0.094-70.619-57.31-127.842-127.916-127.95h-0.010zM480.178 447.774c-0.007 0-0.015 0-0.024 0-35.332 0-63.975-28.643-63.975-63.975s28.643-63.975 63.975-63.975c35.332 0 63.975 28.643 63.975 63.975 0 0.008 0 0.017 0 0.025v-0.001c0 35.319-28.632 63.951-63.951 63.951v0zM752.136 607.77c-0.007 0-0.015 0-0.024 0-44.227 0-80.081 35.853-80.081 80.081s35.853 80.081 80.081 80.081c44.227 0 80.081-35.853 80.081-80.081v0c-0.027-44.208-35.851-80.041-80.053-80.081h-0.004zM752.136 703.792c-0.007 0-0.015 0-0.024 0-8.817 0-15.964-7.147-15.964-15.964s7.147-15.964 15.964-15.964c4.42 0 8.421 1.796 11.312 4.699l0.001 0.001c2.875 2.887 4.652 6.868 4.652 11.265 0 8.808-7.134 15.951-15.939 15.964h-0.001zM928.238 319.848c-0.007 0-0.015 0-0.024 0-35.332 0-63.975 28.643-63.975 63.975s28.643 63.975 63.975 63.975c35.332 0 63.975-28.643 63.975-63.975v0c0-0.007 0-0.015 0-0.024 0-35.319-28.632-63.951-63.951-63.951v0zM928.238 319.848" />
<glyph unicode="&#xe60f;" glyph-name="xiangmuxiaoxi" horiz-adv-x="1152" d="M550.96 836.141l-4.096 2.485c9.058-11.957 8.807-6.594 4.096-2.485v0zM31.25 313.684l464.063-208.624c40.988-19.32 58.669-19.32 103.099 0l464.065 208.625c22.883 10.638 31.25 60.858 31.25 87.923-29.803-14.941-72.045-36.218-72.905-36.452l-473.957-218.481-473.96 218.481c1.603-1.019-41.928 18.695-72.904 36.452 0-26.441 6.649-74.862 31.25-87.924v0zM546.864-71.883l-473.96 218.555c1.603-1.017-41.928 18.696-72.904 36.375 0-26.439 6.649-74.86 31.25-87.924l464.063-208.542c40.988-19.398 58.669-19.398 103.099 0l464.065 208.545c22.883 10.716 31.25 60.94 31.25 87.924-29.803-14.861-72.045-36.215-72.905-36.375l-473.957-218.558zM31.25 532.164l464.063-208.624c40.988-19.322 58.669-19.322 103.099 0l464.065 208.624c34.145 15.958 35.32 83.7 0 103.020l-464.063 245.017c-36.452 21.629-62.111 20.494-103.099 0l-464.065-245.017c-35.319-22.764-36.452-83.7 0-103.020v0zM546.864 838.625c0.484-0.158 0.909-0.407 1.255-0.675l472.703-254.237-473.958-199.785-473.96 199.783 473.96 254.914z" />
<glyph unicode="&#xe610;" glyph-name="yishu" d="M1024 112c0-132.544-107.456-240-240-240h-544c-132.544 0-240 107.456-240 240v544c0 132.544 107.456 240 240 240h544c132.544 0 240-107.456 240-240v-544zM510.672 706.936c-176.904 0-321.608-145.32-321.608-322.936 0-177.648 144.704-322.928 321.608-322.928 29.456 0 53.56 24.184 53.56 53.8 0 13.504-5.312 26.928-13.392 35.008-8.008 10.76-13.4 21.536-13.4 35.040 0 29.544 24.152 53.808 53.6 53.808h64.36c99.112 0 179.52 80.728 179.52 180.256-2.672 158.784-147.384 287.952-324.248 287.952v0 0zM315.040 384c-29.496 0-53.576 24.184-53.576 53.832 0 29.616 24.088 53.832 53.576 53.832s53.6-24.208 53.6-53.832c-0.032-29.648-24.128-53.832-53.6-53.832v0 0zM422.216 526.608c-29.456 0-53.608 24.248-53.608 53.864 0 29.576 24.16 53.832 53.608 53.832 29.488 0 53.608-24.216 53.608-53.832s-24.12-53.864-53.608-53.864v0 0zM599.088 526.608c-29.504 0-53.6 24.248-53.6 53.864 0 29.576 24.096 53.832 53.6 53.832 29.48 0 53.576-24.216 53.576-53.832s-24.104-53.864-53.576-53.864v0 0zM706.296 384c-29.488 0-53.592 24.184-53.592 53.832 0 29.616 24.112 53.832 53.592 53.832 29.512 0 53.608-24.208 53.608-53.832 0-29.648-24.088-53.832-53.608-53.832v0 0zM706.296 384" />
<glyph unicode="&#xe611;" glyph-name="xinjian" d="M907.568 119.012h-138.955v-143.969c0-11.833-9.59-21.431-21.423-21.431h-29.474c-11.833 0-21.425 9.597-21.425 21.431v143.969h-138.954c-11.833 0-21.425 9.597-21.425 21.433v29.473c0 11.833 9.593 21.425 21.425 21.425h138.954v143.973c0 11.834 9.598 21.425 21.425 21.425h29.474c11.833 0 21.423-9.597 21.423-21.425v-143.973h138.955c11.833 0 21.433-9.593 21.433-21.425v-29.473c0-11.834-9.598-21.433-21.433-21.433v0zM339.005 725.084h428.595c94.684 0 171.442-76.755 171.442-171.434v-233.057c0-20.81-20.459-24.099-20.459-24.099v0h-17.261c-18.070 0-19.548 24.406-19.548 24.406v73.024h-742.66v-268.871c0 0 29.95-109.153 114.175-109.153h321.095c0 0 21.779-1.503 21.779-19.469v-20.798c0-20.329-20.974-22.020-20.974-22.020h-321.901c-94.691 0-171.442 76.755-171.442 171.439v600.843M138.754 670.215v-220.941h746.369v105.449c0 101.926-101.249 115.484-101.249 115.484h-547.219z" />
<glyph unicode="&#xe612;" glyph-name="bianji" d="M903.5 403.5c-15.5 0-28-12.5-28-28v-299.1c0-48.5-39.4-87.9-87.9-87.9h-578.2c-48.5 0-87.9 39.4-87.9 87.9v578.2c0 48.5 39.4 87.9 87.9 87.9h298.9c15.5 0 28 12.5 28 28s-12.5 28-28 28h-298.9c-79.3 0-143.9-64.5-143.9-143.9v-578.2c0-79.3 64.5-143.9 143.9-143.9h578.2c79.3 0 143.9 64.5 143.9 143.9v299.1c-0.1 15.5-12.6 28-28 28zM730.3 750.6l-367-370.4s0-0.1-0.1-0.1l-27.9-28.2c-4.4-4.4-7.2-10.1-7.9-16.3l-15.4-125.3c-1.1-8.6 1.9-17.2 8.1-23.3 5.3-5.2 12.4-8.1 19.7-8.1 1.2 0 2.5 0.1 3.7 0.2l125.2 16.6c6.1 0.8 11.9 3.7 16.2 8.1l27.2 27.4s0.1 0 0.1 0.1c0 0 0 0.1 0.1 0.1l366.7 370.2s0.1 0.1 0.2 0.1c0 0 0.1 0.1 0.1 0.2l50.7 51.2c19.8 20 30.6 46.5 30.5 74.6s-11.2 54.5-31.2 74.3-45.9 30.1-74.6 30.5c-28.1-0.1-54.5-11.2-74.3-31.2l-50.1-50.7zM492.3 290.7l-69.7 69.7 327.5 330.7 69.7-69.7-327.5-330.7zM372.1 239.3l9.8 79.9 1.4 1.4 69.7-69.7-1-1-79.9-10.6zM855 776.5c13.6-0.6 25.6-5 34.9-14.3 9.4-9.3 14.5-21.6 14.6-34.8s-5-25.6-14.3-34.9l-31-31.3-69.7 69.7 30.7 31c9.3 9.3 21.6 14.5 34.8 14.6zM748.8 205.8c15.5 0 28 12.5 28 28s-12.5 28-28 28h-152.1c-15.5 0-28-12.5-28-28s12.5-28 28-28h152.1zM215.3 91.2c0-15.5 12.5-28 28-28h510.3c15.5 0 28 12.5 28 28s-12.5 28-28 28h-510.3c-15.5 0-28-12.5-28-28z" />
<glyph unicode="&#xe613;" glyph-name="tianjiarenyuan" d="M509.933 768c0.003 0 0.006 0 0.009 0 106.039 0 192-85.961 192-192s-85.961-192-192-192c-106.039 0-192 85.961-192 192 0 53.017 21.489 101.015 56.231 135.76v0c34.543 34.74 82.369 56.241 135.216 56.241 0.191 0 0.382 0 0.573-0.001h-0.029M509.933 853.333c-153.16 0-277.333-124.16-277.333-277.333s124.173-277.333 277.333-277.333 277.333 124.16 277.333 277.333-124.16 277.333-277.333 277.333zM509.933 384c-243.52 0-443.733-185.48-467.067-422.867-0.122-1.207-0.191-2.609-0.191-4.027 0-23.439 19.001-42.44 42.44-42.44 0.020 0 0.041 0 0.061 0h0.357c22.067 0.056 40.186 16.888 42.28 38.412l0.014 0.174c20.086 194.787 183.324 345.414 381.743 345.414 0.128 0 0.256 0 0.383 0h-0.020zM554.667 170.667h426.667v-85.333h-426.667v85.333zM810.667 341.333v-426.667h-85.333v426.667h85.333z" />
<glyph unicode="&#xe614;" glyph-name="jia" d="M455.78 892.255c96.452 10.598 195.865-6.881 282.561-50.63 89.668-44.175 165.618-115.733 215.304-202.479 47.982-82.991 72.342-179.761 67.739-275.623-3.284-98.668-37.288-195.808-94.588-276.049-58.949-83.042-143.536-147.605-239.187-182.506-90.253-34.27-190.404-40.254-284.623-20.445-103.231 22.826-199.354 77.536-270.168 156.185-60.381 65.938-102.169 148.19-121.551 235.369-19.968 94.856-13.876 195.7 21.025 286.374 63.921 178.227 235.102 311.274 423.489 329.804zM461.661 828.596c-110.59-11.808-215.986-67.109-288.073-151.85-66.842-75.842-106.141-175.363-109.158-276.418-3.915-98.776 26.059-198.82 84.957-278.379 63.131-88.395 160.163-151.679 266.304-174.562 100.367-22.036 208.679-8.421 299.778 39.35 96.072 48.618 172.55 133.996 211.85 234.045 36.861 93.532 40.885 199.672 10.91 295.642-33.685 109.948-111.863 205.713-213.225 260.206-79.508 44.186-173.096 61.977-263.343 51.965zM703.65 415.904c-53.494 1.063-107.095 0.051-160.64 0.426h-0.091v0.040c-0.159 51.903 0.21 103.811-0.108 155.657 1.318 16.74-10.967 33.634-28.128 35.225-17.848 2.853-35.481-12.234-35.589-30.241-1.063-53.477-0.057-107.050-0.426-160.572-52.329-0.364-104.72 0.261-157.049-0.318-15.467 0.688-31.304-10.382-33.526-26.218-4.5-19.758 13.768-38.93 33.475-37.6 52.352-0.631 104.652 0.199 157.003-0.369 0.358-52.295-0.267-104.646 0.313-156.947-0.688-15.467 10.382-31.304 26.218-33.526 19.758-4.5 38.93 13.774 37.6 33.475 0.631 52.408-0.205 104.76 0.369 157.157 51.88 0.159 103.765-0.21 155.589 0.108 16.74-1.318 33.64 10.967 35.225 28.122 2.87 17.843-12.228 35.481-30.236 35.583z" />
<glyph unicode="&#xe615;" glyph-name="loudong" d="M896.251-84.251v606.821h-225.127v161.682h-512.676v-768.503h-94.144v-32.746h895.393v32.746h-63.445zM640.424-84.251h-448.208v735.757h448.208v-735.757zM862.482-84.251h-191.358v576.121h191.358v-576.121zM799.037 363.957h-64.468v-127.913h64.468v127.913zM799.037 171.575h-64.468v-127.913h64.468v127.913zM383.575 522.569h-127.913v-63.445h127.913v63.445zM383.575 331.211h-127.913v-64.468h127.913v64.468zM383.575 171.575h-127.913v-63.445h127.913v63.445zM575.956 171.575h-127.913v-63.445h127.913v63.445zM575.956 331.211h-127.913v-64.468h127.913v64.468zM575.956 522.569h-127.913v-63.445h127.913v63.445z" />
<glyph unicode="&#xe616;" glyph-name="xuqiu_" d="M819.2 896h-614.4c-112.64 0-204.8-92.16-204.8-204.8v-614.4c0-112.64 92.16-204.8 204.8-204.8h614.4c112.64 0 204.8 92.16 204.8 204.8v614.4c0 112.64-92.16 204.8-204.8 204.8zM609.28 87.040c0-20.48-15.36-30.72-30.72-30.72h-133.12c-20.48 0-30.72 15.36-30.72 30.72v30.72h194.56v-30.72zM640 291.84v-71.68c0-20.48-15.36-30.72-30.72-30.72h-199.68c-20.48 0-30.72 15.36-30.72 30.72v71.68c-61.44 40.96-97.28 107.52-97.28 189.44 0 128 102.4 230.4 230.4 230.4s230.4-102.4 230.4-230.4c-5.12-76.8-40.96-148.48-102.4-189.44z" />
<glyph unicode="&#xe617;" glyph-name="kanban-" d="M528.7 811.1v84.5h-58v-84.5h-467.4v-149.6h51.3v-564.7h357.2l-217.3-178 36.7-44.8 272.1 222.8h1.9l272.1-222.8 36.7 44.9-217.3 177.9h355.8v564.8h61.8v149.5h-485.6zM894.5 154.8h-782v506.8h782v-506.8zM302.8 285.4v150.7h150.7c0 83.2-67.5 150.7-150.7 150.7s-150.7-67.5-150.7-150.7c0.1-83.3 67.5-150.7 150.7-150.7zM345.2 244.3c83.2 0 150.7 67.5 150.7 150.7h-150.7v-150.7zM806.1 553.7h-192.8v-58h192.7v58h0.1zM806.1 447.3h-192.8v-58h192.7v58h0.1zM806.1 340.9h-192.8v-58h192.7v58h0.1z" />
<glyph unicode="&#xe618;" glyph-name="yonghuguanli" d="M781.2 385.1l62.4-44.3-173.2-247.4-62.7-21.7-1.1 63.9 174.6 249.5M775.5 454c-11.7 0-23.3-5.3-30.1-15.4l-191.7-273.8c-3.7-5.5-7.3-14.6-7.3-21.9l1.8-104.1c0-21.4 18-36.4 36.7-36.4 3.6 0 7.3 0.6 10.8 1.7l100.4 34.7c7.3 1.8 14.6 7.3 18.3 12.8l191.7 273.8c11 16.4 7.3 38.3-9.1 51.1l-100.4 71.2c-6.4 4.2-13.8 6.3-21.1 6.3zM415 785c-125.9 0-228-102.1-228-228 0-81.7 43-153.4 107.6-193.6-91.1-42-153.7-131.9-171.6-244.4l-8.5-67.5c-4.5-35.8 23.4-67.5 59.5-67.5h269.6c1.1 0 2.1 0.1 3.2 0.2 1.1-0.1 2.1-0.2 3.2-0.2 16.6 0 30 13.4 30 30s-13.4 30-30 30c-1.1 0-2.2-0.1-3.2-0.2-1 0.1-2.1 0.2-3.2 0.2h-235.6c-18.1 0-32 15.8-29.8 33.7l4.1 32.7c5.3 32.5 14.9 62.7 28.6 90 13.4 26.6 30.4 49.7 50.5 68.9 41.2 39 94.2 59.7 153.5 59.7 30 0 58.8-5.5 85.5-16.5 5.9-2.4 11.7-5.1 17.3-8 4.4-2.3 9.2-3.4 13.9-3.4 9 0 17.8 4 23.6 11.5 11.5 14.8 6.9 36.5-9.8 45.1-3.5 1.8-7.1 3.6-10.8 5.3 65.1 40.2 108.4 112 108.4 194 0 125.9-102.1 228-228 228zM415 389c-44.9 0-87.1 17.5-118.8 49.2s-49.2 73.9-49.2 118.8 17.5 87.1 49.2 118.8 73.9 49.2 118.8 49.2c44.9 0 87.1-17.5 118.8-49.2s49.2-73.9 49.2-118.8-17.5-87.1-49.2-118.8c-31.7-31.7-73.9-49.2-118.8-49.2z" />
<glyph unicode="&#xe619;" glyph-name="youxiang" d="M947.2 604.16l-394.24-358.4c-30.72-25.6-71.68-25.6-102.4 0l-373.76 337.92v-245.76c0-15.36-10.24-25.6-25.6-25.6s-25.6 10.24-25.6 25.6v250.88c0 71.68 61.44 128 133.12 128h706.56c71.68 0 133.12-56.32 133.12-128v-409.6c0-71.68-61.44-128-133.12-128h-706.56c-71.68 0-133.12 56.32-133.12 128v40.96c0 15.36 10.24 25.6 25.6 25.6s25.6-10.24 25.6-25.6v-40.96c0-40.96 35.84-76.8 81.92-76.8h706.56c46.080 0 81.92 35.84 81.92 76.8v424.96zM916.48 645.12c-15.36 10.24-30.72 20.48-56.32 20.48h-701.44c-25.6 0-46.080-10.24-61.44-25.6l389.12-358.4c10.24-10.24 25.6-10.24 30.72 0l399.36 363.52zM51.2 128l291.84 256 35.84-40.96-291.84-256-35.84 40.96zM931.84 122.88c10.24-10.24 10.24-25.6 0-35.84s-25.6-10.24-35.84 0l-184.32 163.84c-10.24 10.24-10.24 25.6 0 35.84s25.6 10.24 35.84 0l184.32-163.84z" />
<glyph unicode="&#xe61a;" glyph-name="mima" d="M501.138 291.239h23.222c19.228 0 34.831-15.604 34.831-34.831v-162.552c0-19.228-15.604-34.834-34.855-34.834h-23.221c-19.25 0-34.832 15.606-34.832 34.834v162.552c0.023 19.227 15.603 34.831 34.855 34.831zM884.295 407.347v-418.826c0-25.149-20.807-45.608-46.443-45.608h-650.209c-25.612 0-46.443 20.458-46.443 45.608v418.826h743.094zM953.959 477.013h-882.423v-488.492c0-63.675 51.971-115.272 116.107-115.272h650.209c64.138 0 116.106 51.599 116.106 115.272v488.492h0.001M861.074 477.013h-69.667v69.665c0 156.655-130.807 278.66-278.659 278.66-151.499 0-278.66-127.138-278.66-278.66v-69.665h-69.666v69.665c0 189.93 158.395 348.325 348.325 348.325 187.538 0 348.326-151.94 348.326-348.325v-69.665h0.001z" />
<glyph unicode="&#xe61b;" glyph-name="mokuai" d="M64.001 433.785h398.213v398.214h-398.213v-398.214zM561.783 831.999v-398.214h398.219v398.214h-398.219zM64.001-64.002h398.213v398.219h-398.213v-398.219zM561.783-64.002h398.219v398.219h-398.219v-398.219zM561.783-64.002" />
<glyph unicode="&#xe61c;" glyph-name="bianji2" horiz-adv-x="1111" d="M1055.598-76.127h-999.424c-14.863 0-26.917-11.615-26.917-25.951s12.054-25.922 26.917-25.922h999.424c14.863 0 26.917 11.615 26.917 25.922 0 14.336-12.054 25.951-26.917 25.951zM95.642-1.317c0.010 0 0.021 0 0.033 0 2.622 0 5.16 0.363 7.565 1.042l-0.196-0.047 165.683 45.583c4.557 1.27 8.477 3.561 11.653 6.62l-0.008-0.008 520.748 501.584c4.86 4.611 7.884 11.117 7.884 18.33s-3.024 13.718-7.873 18.319l-0.011 0.010c-4.948 4.71-11.659 7.607-19.046 7.607s-14.098-2.897-19.058-7.618l0.011 0.011-450.414-433.796-87.479 84.261c-2.943 2.785-6.532 4.919-10.517 6.152l-0.191 0.051 440.7 424.521c4.86 4.611 7.884 11.117 7.884 18.33s-3.024 13.718-7.873 18.319l-0.011 0.010c-4.946 4.701-11.651 7.593-19.032 7.593s-14.085-2.892-19.044-7.604l0.012 0.011-516.798-497.752c-4.015-3.835-6.774-8.954-7.619-14.695l-0.017-0.139-23.698-167.205c-0.149-1.033-0.233-2.226-0.233-3.44 0-7.906 3.605-14.97 9.26-19.639l0.043-0.035c4.974-4.096 11.235-6.32 17.642-6.32zM144.764 179.668l35.84 34.523c1.287-3.774 3.365-7.314 6.437-10.328l87.479-84.261-27.297-26.331-119.34-32.797 16.881 119.194zM814.782 606.588c5.179-4.593 11.732-6.875 18.256-6.875 0.042 0 0.093 0 0.143 0 7.715 0 14.684 3.194 19.657 8.331l0.007 0.007 94.998 99.006c4.428 4.565 7.157 10.8 7.157 17.672 0 0.339-0.007 0.677-0.020 1.013l0.002-0.048c-0.328 7.194-3.588 13.568-8.603 17.999l-0.027 0.024-130.516 116.151c-4.842 4.27-11.24 6.876-18.246 6.876-7.754 0-14.762-3.192-19.783-8.333l-0.005-0.005-94.998-99.035c-4.424-4.543-7.153-10.757-7.153-17.608 0-7.574 3.335-14.369 8.616-18.997l0.029-0.025 130.487-116.151zM799.071 804.162l90.99-80.925-58.514-60.943-90.931 80.955 58.456 60.913z" />
<glyph unicode="&#xe61d;" glyph-name="shanchu" d="M785.339 769.53h-567.076c-53.036 0-93.833-40.797-93.833-93.833v-32.637h754.741v32.637c0 48.956-40.797 93.833-93.833 93.833zM622.151 830.725l12.239-101.992h-265.179l12.239 101.992h240.701zM630.311 896h-252.94c-24.478 0-48.956-20.398-53.036-48.956l-20.398-134.629c-4.080-24.478 16.319-48.956 40.797-48.956h314.135c24.478 0 44.876 20.398 40.797 48.956l-20.398 134.629c0 28.558-24.478 48.956-48.956 48.956zM801.657 577.785h-599.713c-32.637 0-61.195-28.558-57.116-65.275l53.036-575.235c4.080-36.717 32.637-65.275 69.355-65.275h473.243c32.637 0 65.275 28.558 69.355 65.275l53.036 575.235c0 36.717-24.478 65.275-61.195 65.275zM377.371 2.55h-93.833l-32.637 444.685h126.47v-444.685zM565.036 2.55h-126.47v444.685h126.47v-444.685zM724.143 2.55h-93.833v444.685h126.47l-32.637-444.685z" />
<glyph unicode="&#xe61e;" glyph-name="cuowu" d="M954.368-87.040c-8.192 0-16.384 4.096-20.48 8.192l-421.888 421.888-421.888-421.888c-12.288-12.288-28.672-12.288-40.96 0s-12.288 28.672 0 40.96l421.888 421.888-421.888 421.888c-12.288 12.288-12.288 28.672 0 40.96s28.672 12.288 40.96 0l421.888-421.888 421.888 421.888c12.288 12.288 28.672 12.288 40.96 0s12.288-28.672 0-40.96l-421.888-421.888 421.888-421.888c12.288-12.288 12.288-28.672 0-40.96-8.192-4.096-12.288-8.192-20.48-8.192M954.368-119.808c-16.384 0-32.768 8.192-45.056 16.384l-397.312 397.312-397.312-397.312c-24.576-24.576-65.536-24.576-90.112 0-12.288 12.288-16.384 28.672-16.384 45.056s8.192 32.768 16.384 45.056l397.312 397.312-397.312 397.312c-8.192 12.288-16.384 28.672-16.384 45.056s8.192 32.768 16.384 45.056c24.576 24.576 65.536 24.576 90.112 0l397.312-397.312 397.312 397.312c24.576 24.576 65.536 24.576 90.112 0s24.576-65.536 0-90.112l-397.312-397.312 397.312-397.312c24.576-24.576 24.576-65.536 0-90.112-12.288-8.192-28.672-16.384-45.056-16.384z" />
<glyph unicode="&#xe61f;" glyph-name="D" d="M581.102-104.212c-3.035 0-6.085 0.449-9.056 1.367l-525.073 162.134c-12.639 3.992-21.642 15.611-21.642 29.333v0 113.238h61.399v-90.59l463.675-143.175v535.357l-463.675 110.076v-233.403h-61.4v272.243c0.001 16.955 13.747 30.699 30.702 30.699 2.515 0 4.959-0.302 7.298-0.873l-0.21 0.043 525.074-124.653c13.838-3.284 23.608-15.646 23.608-29.869v-601.229c-0.001-16.955-13.745-30.699-30.7-30.7v0zM581.104 527.718l386.74 176.712v-526.562l-386.74-251.381zM581.133-104.216c-10.045 0-19.887 4.923-25.769 13.972-9.24 14.216-5.206 33.23 9.010 42.47l372.771 242.302v462.122l-343.282-156.855c-15.423-7.045-33.635-0.257-40.68 15.165-7.047 15.42-0.258 33.635 15.163 40.68l386.741 176.712c3.745 1.753 8.132 2.776 12.758 2.776 16.955 0 30.699-13.744 30.7-30.698v0-526.56c0 0 0 0 0 0 0-10.733-5.508-20.18-13.852-25.668l-0.116-0.072-386.743-251.382c-4.709-3.112-10.487-4.964-16.698-4.964-0.001 0-0.002 0-0.003 0v0zM56.049 621.66c-11.662 0-22.812 6.68-27.959 17.986-7.025 15.43-0.21 33.636 15.22 40.66l382.279 174.036c3.735 1.742 8.11 2.759 12.722 2.759 2.443 0 4.82-0.285 7.098-0.824l-0.208 0.042 529.538-121.972c16.522-3.805 26.83-20.284 23.025-36.806-3.272-14.202-15.91-23.813-29.889-23.815-2.282 0-4.598 0.255-6.917 0.79l-519.4 119.635-372.807-169.722c-3.728-1.746-8.095-2.765-12.7-2.767h-0.001z" />
<glyph unicode="&#xe620;" glyph-name="biaoqing" d="M388.7 481.8c1.2-0.8 2.7-1.3 4-1.8 1.3-0.4 2.7-0.5 4-0.2 1.3 0.1 2.6 0.5 3.7 1.2 0.7 0.5 1.3 1 2 1.6 1 0.9 1.7 2 2.1 3.2 0.5 0.8 0.7 1.6 0.7 2.5 0.3 1.3 0.2 2.7-0.2 4-0.3 0.8-0.7 1.6-1 2.4-0.9 1.5-2.1 2.7-3.6 3.6-0.5 0.3-1.1 0.5-1.6 0.8-1.1 0.7-2.4 1.1-3.7 1.2-1.3 0.3-2.7 0.2-4-0.2-1.3-0.3-2.4-0.9-3.4-1.8-1.1-0.7-1.9-1.6-2.6-2.8-0.3-0.8-0.7-1.6-1-2.4-0.5-1.8-0.5-3.5 0-5.3 0.3-0.8 0.7-1.6 1-2.4 0.9-1.5 2.1-2.7 3.6-3.6 0.5-0.3 1.1-0.5 1.6-0.8 2.6 6.1 5.1 12.2 7.7 18.3-0.1 0-0.1 0-0.2 0.1 0.8-0.3 1.6-0.7 2.4-1-0.5 0.2-1 0.5-1.5 0.7-1.1 0.7-2.4 1.1-3.7 1.2-1.3 0.3-2.7 0.2-4-0.2-1.3-0.3-2.4-0.9-3.4-1.8-1.1-0.7-1.9-1.6-2.6-2.8-0.3-0.8-0.7-1.6-1-2.4-0.5-1.8-0.5-3.5 0-5.3 0.3-0.8 0.7-1.6 1-2.4 1-1.5 2.2-2.7 3.7-3.6zM668.2 543.6c-21-0.4-39.6-13.2-46.7-33-6.9-19.1-0.8-41.9 15-54.7 16.1-13.1 39.2-15.3 57.2-4.5s26.9 31.7 23.2 52.2c-4.2 23.3-25.4 39.6-48.7 40-12.9 0.2-12.9-19.8 0-20 12.2-0.2 23.4-7.4 27.7-18.9 4.5-11.9 0.9-25.8-9.1-33.8-20.9-16.9-53 2.2-47.7 28.7 2.8 14.1 14.8 23.8 29.1 24.1 12.9 0.1 12.9 20.1 0 19.9zM512 807.6c-87.7-0.1-174.5-27.3-245.9-78.4-69.6-49.9-123.1-120-152.5-200.5-30.3-83.2-33.3-176.1-9.1-261.3 23.3-81.9 71.9-156.2 137.7-210.2 67.4-55.4 150.5-88.8 237.5-95.5 87.6-6.7 176.7 14.3 251.8 59.9 72.5 44 131.3 109.9 166.2 187.2 36.7 81.3 46.9 173 29.2 260.4-16.9 83.9-60.1 161.8-121.9 220.9-62 59.3-141.9 99.3-226.8 112.3-21.8 3.4-44 5.2-66.2 5.2-12.9 0-12.9-20 0-20 84-0.1 166.2-26.3 234.7-75 65.6-46.6 116.8-113.6 144.3-189.3 29.2-80.1 32.4-168.6 9.1-250.6-22.3-78.4-68.8-148.7-131.6-200.6-63.4-52.4-143.1-84.4-225.1-90.5-84.1-6.3-168.8 13.4-241 57.2-69.4 42.1-124.9 105-158.5 178.8-34.9 76.8-44.4 165-27.5 247.6 16.4 80.2 57.3 154.2 116.5 210.8 59.5 57 135.9 94.4 217.3 107.1 20.4 3.2 41.1 4.6 61.7 4.6 13-0.1 13 19.9 0.1 19.9zM292.6 437c16.7 7.4 33.1 15.4 49.4 23.6 16.2 8.1 33.5 15.4 48.7 25.2 5.9 3.8 7.1 13.8 0 17.3-17.8 8.8-35.7 17.4-53.5 26.1l-27.6 13.5c-4 2-8 3.9-11.9 5.9-2 1-4.3 1.8-6.1 3.2-0.6 0.4-0.1 0.6-0.9 1.2 0.7-0.6 0.1-0.6 0 0.3 0.3-1.7 0-0.3 0 0.1s0.1 2 0 0.1c0 0.5 0.7 1.6-0.1 0.3 0.2 0.4 0.4 0.8 0.7 1.2 0.9 1.3-0.8-1.1 0.1 0.2 0.1 0.2 1.5 1.6 0.7 0.8-0.6-0.6 1.7 0.6-0.1 0.1 0.6 0.2 1.2 0.4 1.9 0.5-0.3-0.1-1.3-0.1-0.2-0.1 0.3 0 0.6 0 1.4-0.4 4.7-2.2 9.3-4.7 13.9-7l27.6-13.8c9.1-4.6 18.3-9.9 27.8-13.7 10.9-4.3 21.2-7.5 31.2-13.5 2.2-1.3 4.7-3 6.1-4.1 1.1-0.9 2.2-1.9 3.2-3 0.4-0.4 2.4-2.9 1.8-2 0.8-1.1 1.5-2.3 2-3.5-0.6 1.4 0.4-1.4 0.5-1.8 0.4-1.6 0 1.4 0.1-0.3 0.1-0.6 0-1.3 0.1-1.9 0-1.2 0.1 1 0.2 0.9 0.2-0.3-0.9-2.2-0.1-0.9 0.7 1.2-0.9-1.5-1.1-1.8-0.6-0.9 0.2 0.3 0.3 0.4-0.4-0.4-0.7-0.9-1.2-1.3-0.9-0.9-1.7-1.7-2.7-2.5-0.2-0.2-1.5-1.1-0.3-0.2-0.5-0.4-1.1-0.8-1.7-1.2-4.9-3.4-10.2-6.1-15.6-8.6-9.3-4.4-18.4-7.3-28.1-12.2-17.6-8.9-35.6-16.8-53-26.1-3.7-2-8.8-5.5-12.1-6.4-1.2-0.3-0.3-0.1 0-0.1-2.1-0.3 0.6-0.5-1.3 0.1-0.1 0-1.5 0.6-0.6 0.2 0.8-0.3-0.9 1.1 0 0-0.4 0.5-1 0.8-1.3 1.3 0.8-1.2-0.1 0.2-0.3 0.7-0.3 1 0 0 0.1-0.2-0.8 2-0.2-1.2-0.2 1 0 0.1 0.1 1.6 0 0.5-0.1-0.7 0.9 0.8 0-0.1 1.2 0.9 0.6 1 2.2 2 10.9 6.8 0.9 24.1-10.1 17.3-7.6-4.7-12.5-12.3-11.7-21.4 0.8-8.4 6-15.9 13.8-19.2 9.5-4.2 17.6-0.5 26.1 4.1 10.5 5.7 21.1 11.2 31.9 16.5 8.8 4.3 17.9 8.1 26.6 12.6 2 1.1 4.2 2 6.3 2.9 1.6 0.7-2.2-0.9 0.6 0.3 0.6 0.3 1.2 0.5 1.8 0.8 1.6 0.7 3.2 1.3 4.8 2 13.2 5.5 27.5 11.1 38.1 21.1 11.8 11.2 10.5 26.9 0.6 39-9.7 11.9-25.4 18.2-39.3 23.5-7.9 3-15.2 6.2-22.8 9.9l-33 16.5c-5.4 2.7-10.7 5.4-16.1 8-4.9 2.4-9.5 5-15 5.5-8.5 0.7-16.6-3.8-21-10.9-5.2-8.3-4.4-19 1.9-26.4 3.5-4.2 8.4-6.3 13.2-8.7 6.3-3.1 12.5-6.2 18.8-9.3 24.2-11.8 48.4-23.4 72.5-35.4v17.3c-15.2-9.8-32.5-17.1-48.7-25.2-16.3-8.2-32.7-16.2-49.4-23.6-4.9-2.2-6.1-9.4-3.6-13.7 3-5 8.8-5.7 13.7-3.5zM707.3 254.7c-43.2-46.9-97.5-87.4-161.2-100.1-31.4-6.3-64-4.5-94.7 4.8-32.6 9.8-63.8 26.5-91.7 45.8-14.1 9.8-27.5 20.6-39.8 32.5-3.3 3.1-6.5 6.3-9.6 9.6-2.5 2.6-5.7 5.2-7.3 8.5 0.1-0.3 0.1 0.7 0.1 0.6 0.1 1.7-0.2-1.3 0 0.3 0.1 0.5 0.3 1 0.4 1.4-0.7-1.8 1.7 2.2 0.5 0.7 1.2 1.5 0.8 1.1 2.1 1.8 1.1 0.5-0.1 0.1-0.3 0 0.4 0.3 1.2 0.4 1.7 0.5-1.8-0.4-0.6-0.2 0-0.2-0.1 0-2 0.2-1.7 0.4s0.8-0.8 1.5-1.5c1.6-1.9 3.3-3.8 5-5.6 5.8-6.4 11.9-12.5 18.3-18.3 12.9-11.8 26.7-22.6 41.4-32.2 54.9-35.6 122.1-52.6 186.4-36.3 29.7 7.5 57.6 21.5 82.5 39.2 13.4 9.5 26.1 20 38.1 31.2 6.1 5.7 12.1 11.7 17.9 17.8 1.9 2 4.1 4.9 6 5.3 0.1 0 1.3-0.2 0.5 0.1 0.7-0.2 1.7-0.5 2.2-0.9 1.3-1 1.7-2 2-3.4-0.2 0.8 0-0.4-0.2-1.1 0 0-1.4-2.3-1.9-3-3.3-4.3-0.7-11.2 3.6-13.7 5.2-3 10.4-0.7 13.7 3.6 10.3 13.4 2.5 33.3-13.5 37.5-8.5 2.2-17.1-0.7-23.1-6.8-6.5-6.6-12.8-13.4-19.5-19.8-24.1-22.8-51.2-42.6-81.7-56.1-28.5-12.6-59.8-18.2-90.9-16.2-34.7 2.2-68.5 14.1-98.5 31.3-15.8 9.1-30.8 19.7-44.6 31.7-6.9 6-13.6 12.4-19.9 19-5.7 5.9-10.8 14.4-19.1 16.9-14.5 4.3-29.2-10.3-28.9-24.4 0.2-9.7 6.8-16.2 13.1-22.7 6.4-6.7 13.2-13.2 20.2-19.3 28.2-24.7 60.3-44.9 94.5-60.2 33.9-15.1 69.5-24.3 106.8-22.5 71.2 3.5 135.1 42 185.2 90.5 6.3 6.1 12.5 12.5 18.4 19 8.9 9.6-5.2 23.8-14 14.3zM668.2 438c-23 0.2-44.6 14.6-52.5 36.5-8.2 22.7-1.3 48.2 17.7 63.3 18.2 14.5 44.2 16.1 64 3.9 19.5-11.9 30.4-35.8 25.8-58.3-5.3-26.2-28.4-45.1-55-45.4-12.9-0.1-12.9-20.1 0-20 31.7 0.3 59.9 20.2 71.3 49.7 11.2 29.1 1.8 64-22 84-24.5 20.6-59.9 24.2-87.7 7.8-27.8-16.3-42.1-48.6-36.2-80.1 6.6-35.4 38.9-61 74.5-61.4 13-0.1 13 19.9 0.1 20zM512 824c-242 0-440-198-440-440s198-440 440-440 440 198 440 440-198 440-440 440zM512-29.6c-228.8 0-413.6 184.8-413.6 413.6s184.8 413.6 413.6 413.6 413.6-184.8 413.6-413.6-184.8-413.6-413.6-413.6zM512 834c-46.9-0.1-93.8-7.3-138.4-21.9-43.2-14.1-84.2-34.7-121.2-61.1-37.1-26.4-69.9-58.1-97.6-94.2-27.7-36-49.6-76-65.4-118.5-16.2-43.7-25.2-90.1-27.1-136.7-1.8-47.1 3.8-94.6 16.7-139.9 12.5-43.9 31.8-86.1 57-124.2 24.8-37.5 55.1-71.5 89.8-100.1 35.3-29.1 74.6-52.7 117-70.1 42.9-17.7 88.6-28.3 134.9-31.9 47.1-3.7 95 0.3 140.9 11.5 44.3 10.8 87 28.6 125.9 52.3 38.4 23.4 73.5 52.5 103.3 86.2 30 33.8 55.1 71.9 73.7 113 19.5 42.5 32 87.6 37.5 134.1 5.6 47.1 3.3 95.1-6.1 141.6-9.1 44.8-25.4 88.3-47.7 128.2-21.9 39.3-49.9 75.4-82.4 106.5-32.6 31.1-69.8 57.6-110.1 77.7-41.3 20.7-85.8 35.1-131.5 42.1-22.9 3.5-46 5.4-69.2 5.4-12.9 0-12.9-20 0-20 89.3-0.1 176.8-28.4 249.5-80.3 70-49.9 124.7-121.3 154.3-202.1 31.2-85 34.7-178.9 9.6-266-24.1-83.6-73.9-158.4-140.8-213.7-67.3-55.6-151.8-90-238.9-96.7-89.6-6.9-179.9 14.6-256.6 61.5-73.9 45.1-133.2 112.3-169.1 191.1-37.1 81.2-47.4 174.2-29.4 261.6 17.6 86 61.8 165.1 125.3 225.6 63.3 60.4 144.4 100.5 230.9 114.1 21.6 3.4 43.4 4.9 65.2 4.9 12.9 0 12.9 20 0 20zM512-19.6c-84 0.1-166.2 26.3-234.7 75-65.6 46.6-116.8 113.6-144.3 189.3-29.2 80.1-32.4 168.6-9.1 250.6 22.3 78.4 68.8 148.7 131.6 200.6 63.4 52.4 143.1 84.4 225.1 90.5 84.1 6.3 168.8-13.4 241-57.2 69.4-42.1 124.9-105 158.5-178.8 34.9-76.8 44.4-165 27.5-247.6-16.4-80.2-57.3-154.2-116.5-210.8-59.5-57-135.9-94.4-217.3-107.1-20.5-3.1-41.2-4.5-61.8-4.5-12.9 0-12.9-20 0-20 87.7 0.1 174.5 27.3 245.9 78.4 69.6 49.9 123.1 120 152.5 200.5 30.3 83.2 33.3 176.1 9.1 261.3-23.3 81.9-71.9 156.2-137.7 210.2-67.4 55.4-150.5 88.8-237.5 95.5-87.6 6.7-176.7-14.3-251.8-59.9-72.5-44-131.3-109.9-166.2-187.2-36.7-81.3-46.9-173-29.2-260.4 16.9-83.9 60.1-161.8 121.9-220.9 62-59.3 141.9-99.3 226.8-112.3 22-3.4 44.1-5.2 66.3-5.2 12.8 0 12.8 20-0.1 20zM300.8 423.6c19.8 11 41.8 22 61.6 30.8 11 6.6 57.2 19.8 57.2 37.4 0 22-35.2 33-52.8 39.6l-66 33c-15.4 8.8-28.6-13.2-13.2-22 32-16 65.8-32 98.1-48 2.2 1.3 4.8 2.7 7.5 4 8.3 4.1-6.8-3.4 0.6-8 0.5-0.3 1.1-0.5 1.6-0.8-0.6 0.3-1.2 0.5-1.6 0.8-2.7 1.3-5.4 2.7-8.1 4-1.4-0.9-2.6-1.7-3.5-2.6l-39.6-19.8c-17.6-8.8-35.2-17.6-55-26.4-15.4-8.8-2.2-30.8 13.2-22zM305.8 415c18.3 10.1 36.9 19.6 55.9 28.2 11.5 5.2 18.7 8.3 30.6 13.5 10.9 4.8 23.1 10.3 30.9 19.6 9.5 11.3 7.2 25.5-1.8 36.5-8.7 10.7-22.4 16.7-34.9 21.8-5.4 2.2-11.1 3.9-16.4 6.3-10.3 4.6-20.2 10.1-30.3 15.2l-29.4 14.7c-7.6 3.8-15 7.4-23.6 4.5-15.1-5.1-21.2-24.6-10.3-36.7 3.5-3.9 8.2-6 12.8-8.3 5.4-2.7 10.8-5.3 16.2-8 10.7-5.2 21.3-10.4 32-15.6 11-5.3 21.9-10.6 32.9-16 5.1-2.5 12-7.7 18-6.1 2.9 0.8 5.6 2.9 8.3 4.2 1.1 0.6 6 2.4 1.7 1h-5.2l-6 14.7c2.6 3.9 0.1 0.6-0.8-0.4-1.8-2-3.3-4.3-4.1-6.9-2.1-7 1.9-13.4 8.1-16.4 3.4 5.8 6.7 11.5 10.1 17.3-4 1.8-7.9 4.7-12.1 5.8-6 1.7-9.8-3.1-14.7-5.3-8.7-4-17.2-8.6-25.8-12.9-16.8-8.4-33.5-16.8-50.4-24.8-8.1-3.8-17.5-6.5-22.9-14.1-3.7-5.3-4.8-12.4-2.9-18.6 4.4-14.9 20.9-20.2 34.1-13.2 11.4 6 1.3 23.3-10.1 17.3-3.9-2.1 1.6 0.9-2-0.7 1.2 0.6-1.1 0.1-0.1 0 1.5-0.2-2.5 0.9-1.2 0.4 0.7-0.3-0.8 1.1 0 0 0 0-2 2.4-0.9 0.8-0.1 0.2-1.4 2.3-0.7 1.3 0.5-0.7-0.2 1.5 0-0.2 0 0.5 0.3 2.9-0.1 1.1 0.2 1 0 0.9 1 1.6 2 1.5 5.5 2.6 8.1 3.8 6.3 2.9 12.5 5.8 18.7 8.8 12.1 5.8 24.1 11.8 36 17.8 12.2 6.1 24.9 11.6 36.2 19h-10.1c3.2-1.6 6.4-3.3 9.7-4.8 4.9-2.2 10.7-1.4 13.7 3.6 2.6 4.4 1.3 11.3-3.6 13.7-2.3 1.4-2.2 1 0.2-1.1 1.3-2.3 1.4-4.5 0.2-6.6 0.2 1.4-1.3-1 0.2 0.2 1.3 1.1 2.4 2.4 3.3 3.7 3.9 5.6-0.3 12.8-6 14.7-5.5 1.9-13.3-3.6-17.8-6.2h10.1c-32.3 16-65.5 30.5-97.3 47.6-1.4 0.7-1.6 1-2.5 1.8 0.3-0.2-0.2 0.4-0.1 0.4-0.2 0.5-0.1 1.1 0.2 1.8 0.7 1.5-0.4-0.2 0.7 1 0.2 0.2 1.4 1.3 0.2 0.2 0.1 0.1 1.4 0.7 0.5 0.4 0.9 0.3 1.6 0.5 2.3 0.2 8.3-3.3 16.3-8.2 24.3-12.2 8.3-4.2 16.6-8.3 25-12.5 7.5-3.8 15-8 22.9-10.9 5-1.8 10-3.6 15-5.7 8.7-3.6 19.1-8.4 25.2-16 0.1-0.2 0.4-0.6 1.1-1.8 0.3-0.6 0.7-1.2 0.9-1.8-0.1 0.2-0.4 1.2-0.1 0.1 0.2-0.5 0.8-3.3 0.6-1.7 0.1-0.5 0-1 0.1-1.5 0.4-2 0.3-0.1 0.2 0 0.3-0.4-0.9-2.5 0.1-0.3-0.4-0.8-0.9-1.6-1.4-2.3-0.6-0.9 0.2 0.3 0.3 0.4-0.4-0.4-0.7-0.9-1.2-1.3-0.9-0.9-1.7-1.7-2.7-2.5-1.1-0.9 0.2 0-1.5-1.1-0.9-0.6-1.7-1.2-2.6-1.7-2.3-1.5-4.7-2.8-7.2-4.1-4.7-2.5-9.6-4.7-14.5-6.8-8.6-3.7-20.2-8.8-29.9-13.3-18.2-8.4-36-17.4-53.5-27.1-11.2-6.5-1.1-23.8 10.1-17.5zM393.2 498.4c-2.7-1.3-5.3-2.7-7.5-4 2.7-1.3 5.4-2.7 8.1-4-7.4 4.6 7.7 12.1-0.6 8zM388.2 507c-2.5-1.3-5.1-2.5-7.5-4-3-1.8-5-5.1-5-8.6 0-3.3 1.9-7.1 5-8.6 2.7-1.3 5.4-2.7 8.1-4 4.7-2.3 11-1.4 13.7 3.6 2.6 5 1.1 10.6-3.6 13.7-0.2 0.1-0.4 0.2-0.5 0.4 0.7-0.5 1.3-1 2-1.6-0.4 0.3-0.7 0.6-1 0.9 0.5-0.7 1-1.3 1.6-2-0.2 0.2-0.3 0.5-0.4 0.8 0.3-0.8 0.7-1.6 1-2.4-0.1 0.2-0.1 0.4-0.2 0.6 0.1-0.9 0.2-1.8 0.4-2.7v1c-0.1-0.9-0.2-1.8-0.4-2.7 0.1 0.3 0.2 0.7 0.3 1-0.3-0.8-0.7-1.6-1-2.4 0.3 0.7 0.7 1.2 1.1 1.8-0.5-0.7-1-1.3-1.6-2 2 2.5 4.3 3.8 5.3 7.2 2 7.3-5.1 14.7-12.5 12.3-1.7-0.6-3.3-1.5-4.8-2.3-4.7-2.3-6.4-9.3-3.6-13.7 3.1-4.8 8.7-6.1 13.7-3.6 0.8 0.4 1.5 0.8 2.3 1.1-0.8-0.3-1.6-0.7-2.4-1 0.1 0 0.1 0 0.2 0.1-0.9-0.1-1.8-0.2-2.7-0.4-0.9 0.1-1.8 0.2-2.7 0.4-2 1.5-4 3.1-6 4.6-0.3 2.6-0.7 5.1-1 7.7 0.3 0.8 0.7 1.6 1 2.4 0.5 0.7 1 1.3 1.6 2-0.4-0.5-1-1-1.5-1.4-1.3-1.4-2.6-2.9-3.6-4.6-1.7-3.2-2.4-6.7-1.5-10.2 0.9-3.7 3.5-6.6 6.7-8.6 3.4 5.8 6.7 11.5 10.1 17.3-2.7 1.3-5.4 2.7-8.1 4v-17.3c2.4 1.5 5 2.7 7.5 4 4.7 2.3 6.4 9.3 3.6 13.7-3.1 4.7-8.6 6-13.6 3.5zM668.2 560c-35.2 0-66-28.6-66-66 0-35.2 28.6-66 66-66 35.2 0 66 28.6 66 66 0 35.2-28.6 66-66 66zM668.2 454.4c-22 0-39.6 17.6-39.6 39.6s17.6 39.6 39.6 39.6 39.6-17.6 39.6-39.6-17.6-39.6-39.6-39.6zM668.2 570c-31.7-0.3-59.9-20.2-71.3-49.7-11.2-29.1-1.8-64 22-84 24.5-20.6 59.9-24.2 87.7-7.8 27.8 16.3 42.1 48.6 36.2 80.1-6.7 35.5-39 61-74.6 61.4-12.9 0.1-12.9-19.9 0-20 23-0.2 44.6-14.6 52.5-36.5 8.2-22.7 1.3-48.2-17.7-63.3-18.2-14.5-44.2-16.1-64-3.9-19.5 11.9-30.4 35.8-25.8 58.3 5.3 26.2 28.4 45.1 55 45.4 12.9 0.1 12.9 20.1 0 20zM668.2 464.4c-12.2 0.2-23.4 7.4-27.7 18.9-4.5 11.9-0.9 25.8 9.1 33.8 20.9 16.9 53-2.2 47.7-28.7-2.8-14-14.8-23.8-29.1-24-12.9-0.2-12.9-20.2 0-20 21 0.4 39.6 13.2 46.7 33 6.9 19.1 0.8 41.9-15 54.7-16.1 13.1-39.2 15.3-57.2 4.5-18-10.7-26.9-31.7-23.2-52.2 4.2-23.4 25.4-39.7 48.7-40.1 12.9-0.1 12.9 19.9 0 20.1zM694.6 267.4c-77-83.6-169.4-123.2-277.2-77-39.6 17.6-74.8 44-103.4 77-8.8 11-28.6-6.6-17.6-19.8 37.4-41.8 85.8-72.6 136.4-92.4 107.8-41.8 209 13.2 281.6 92.4 11 13.2-6.6 30.8-19.8 19.8zM687.5 274.5c-44-47.6-100.5-88.8-167.2-93.2-71-4.7-139.5 30.8-187.9 80.8-5.8 6-11.3 15.1-19.5 17.8-6.9 2.3-14.2 0.2-19.7-4.2-5.8-4.5-9.8-11.5-10-18.9-0.3-9.6 5.8-16 11.9-22.5 25.8-27.3 56.6-50.1 89.7-67.9 32.8-17.6 67.8-31.4 105.2-34.8 34.5-3.1 69.5 2.9 101.6 15.6 33.3 13.2 63.4 32.5 90.7 55.5 13.4 11.3 26.5 23.5 38.1 36.6 5.9 6.6 9.1 14.8 6.6 23.7-2.1 7.3-7.7 13.3-14.7 16.1-7.5 3-16.2 1.9-22.7-3.1-4.3-3.3-6.6-8.6-3.6-13.7 2.5-4.2 9.4-6.9 13.7-3.6 0.7 0.6 2.9 1.9 3 1.9 1 0.4 1.1 0.2 1.4 0.2-1.1 0.2 1.5-0.5 0.5-0.1-0.9 0.4 1-0.5 1.2-0.6 0 0 1.3-1.1 1.4-1.3 0.3-0.5 0.7-1.7 0.7-1.7 0 0.1 0-1.3 0.2-0.5-0.6-2.3-2.9-4.5-5-6.7-11.5-12.2-23.7-23.8-36.7-34.6-24.2-20.1-51.4-37.6-80.7-49.1-29.5-11.6-60.8-17.2-92.5-14.8-33.4 2.5-65 14.9-94.5 30.3-30.9 16.2-59.5 36.5-84.1 61.2-3 3-5.8 6.2-8.8 9.2-0.9 1-1.8 1.8-2.4 3-0.4 0.7-0.3 0.7-0.2 1.6-0.4-2 0.7 1.8 0.4 1 0.1 0.1 1.2 1.6 1 1.3 1.2 1.5 0.2 0.4 1.4 1.2 0.4 0.3 1.1 0.5 1.4 0.6-1.4-0.6 1.4 0.3-0.1-0.1-0.2 0-1.2 0.4-1.2 0.4 0.2 0.2 1-1.1 2-2.2 3-3.4 6-6.7 9.1-9.9 6-6.2 12.2-12.2 18.7-17.9 50-44 116.1-74.3 183.8-70 63.5 4 119.5 37.5 164.4 80.9 6.1 5.9 12 12 17.7 18.2 8.6 9.6-5.5 23.7-14.3 14.3z" />
<glyph unicode="&#xe621;" glyph-name="cuowu1" d="M937.503 570.435c-22.472 53.12-54.63 100.818-95.58 141.773-40.96 40.96-88.658 73.114-141.778 95.58-55.009 23.265-113.428 35.062-173.629 35.062-60.206 0-118.62-11.796-173.635-35.062-53.12-22.467-100.818-54.625-141.773-95.58-40.96-40.955-73.114-88.658-95.58-141.773-23.27-55.004-35.067-113.428-35.067-173.635 0-60.201 11.796-118.62 35.067-173.635 22.467-53.12 54.625-100.818 95.58-141.768 40.955-40.96 88.653-73.119 141.773-95.58 55.009-23.27 113.423-35.072 173.635-35.072 60.196 0 118.615 11.802 173.629 35.072 53.12 22.461 100.818 54.62 141.778 95.58 40.95 40.95 73.108 88.648 95.58 141.768 23.27 55.009 35.062 113.428 35.062 173.635s-11.802 118.63-35.062 173.635zM526.515 1.649c-217.892 0-395.156 177.27-395.156 395.151 0 217.887 177.265 395.151 395.156 395.151 217.887 0 395.146-177.265 395.146-395.151 0-217.882-177.26-395.151-395.146-395.151zM525.691 225.792c-31.539 0-56.632-25.759-56.632-57.958 0-31.493 23.639-58.691 56.632-58.691 31.508 0 57.329 25.769 57.329 58.691 0 32.184-25.82 57.958-57.329 57.958zM494.152 285.901h65.94l29.686 380.027h-125.338z" />
<glyph unicode="&#xe622;" glyph-name="jiaoyi" horiz-adv-x="1413" d="M720.413 227.588c-0.025 0-0.046-0.008-0.072-0.008v0.426h-141.048v85.739h141.048v0.455c0.025 0 0.046-0.008 0.072-0.008 16.896 0 30.591 13.697 30.591 30.591 0 16.897-13.695 30.593-30.591 30.593-0.025 0-0.046-0.006-0.072-0.006v0.006h-120.109l131.697 242.579c4.809 6.542 7.741 14.545 7.741 23.29 0 21.812-17.681 39.49-39.49 39.49-17.060 0-31.459-10.877-36.98-26.027h-0.291s-113.911-222.461-119.173-237.473h-1.582c-7.374 18.701-124.453 237.473-124.453 237.473h-0.298c-5.358 15.128-19.645 26.027-36.61 26.027-21.53 0-38.982-17.453-38.982-38.98 0-0.017 0-0.036 0-0.056 0-8.105 2.485-15.63 6.734-21.855l-0.086 0.134-0.194-0.103 131.069-244.498h-122.477c-16.897 0-30.593-13.697-30.593-30.593s13.695-30.591 30.593-30.591v-0.449h145.392v-85.739h-145.393v-0.419c-16.897 0-30.593-13.697-30.593-30.593s13.695-30.591 30.593-30.591v-0.425h145.392v-123.272h0.839c-0.512-2.352-0.806-5.055-0.808-7.827v-0.002c0-21.219 17.202-38.42 38.42-38.42s38.421 17.203 38.421 38.42c0 2.683-0.287 5.3-0.809 7.828h0.981v123.273h141.048v0.431c0.025 0 0.047-0.006 0.074-0.006 16.895 0 30.591 13.697 30.591 30.591 0 16.897-13.697 30.594-30.59 30.593zM1026.641 461.435c-13.23 0-23.992 10.492-23.992 23.39v0.859l-0.19 0.837c-48.223 210.964-243.288 364.082-463.821 364.082s-415.599-153.118-463.819-364.082l-0.192-0.837v-0.859c-0.001-12.898-10.764-23.391-23.991-23.391-13.23 0-23.992 10.492-23.992 23.39 0 3.236 0.723 6.447 2.15 9.542l0.332 0.723 0.176 0.776c25.412 111.772 89.596 213.3 180.729 285.885 45.488 36.23 96.362 64.461 151.21 83.911 56.768 20.132 116.453 30.339 177.396 30.339 92.509 0 183.381-24.055 262.793-69.564 77.045-44.154 141.737-107.365 187.082-182.802l14.136-23.515v82.513c0 12.898 10.763 23.39 23.991 23.39s23.991-10.492 23.992-23.39v-217.805c-0.001-12.899-10.763-23.391-23.991-23.391zM538.637-127.986c-92.51 0-183.384 24.055-262.796 69.564-77.046 44.154-141.738 107.365-187.083 182.8l-14.136 23.515v-82.509c0-12.898-10.761-23.39-23.99-23.39-13.23 0-23.992 10.492-23.992 23.39v217.805c0 12.899 10.763 23.391 23.992 23.391s23.99-10.492 23.99-23.391v-0.859l0.192-0.837c48.221-210.964 243.287-364.082 463.822-364.082 220.534 0 415.597 153.118 463.819 364.081l0.192 0.837v0.859c0 12.899 10.761 23.392 23.991 23.392 6.435 0 12.479-2.452 17.015-6.902 4.497-4.413 6.973-10.268 6.973-16.489 0-3.239-0.723-6.449-2.149-9.542l-0.335-0.723-0.176-0.776c-25.412-111.771-89.596-213.302-180.729-285.884-45.487-36.23-96.362-64.461-151.208-83.911-56.767-20.133-116.449-30.34-177.392-30.34z" />
<glyph unicode="&#xe623;" glyph-name="zhichu" d="M832 644.608c0 33.792-27.648 61.44-61.952 61.44h-562.176c-33.792 0-61.952-27.648-61.952-61.44v-68.608h686.080v68.608zM695.296 434.688c52.224 0 99.84-19.456 136.192-51.2v100.352h-686.080v-258.56c0-33.792 27.648-61.44 61.952-61.44h291.328c-6.656 19.968-10.24 41.984-10.24 64 0.512 114.176 92.672 206.848 206.848 206.848zM863.744 297.472c-9.728 22.016-22.528 40.96-39.424 57.344-16.384 16.384-35.84 29.184-57.856 38.912s-45.568 14.336-70.144 14.336c-25.6 0-49.152-4.608-71.168-14.336s-41.472-22.528-57.856-38.912c-16.384-16.384-29.696-35.84-39.424-57.344-9.728-22.016-14.336-45.056-14.336-69.632 0-25.088 4.608-48.64 14.336-70.656s22.528-40.96 39.424-57.344c16.384-16.384 35.84-29.184 57.856-38.4s45.568-13.824 71.168-13.824c25.088 0 48.128 4.608 70.144 13.824s41.472 22.016 57.856 38.4c16.384 16.384 29.696 35.84 39.424 57.344 9.728 22.016 14.336 45.568 14.336 70.656 0 24.576-5.12 48.128-14.336 69.632zM806.912 213.504l-107.52-107.52c-3.584-5.12-9.216-8.704-15.872-8.704-10.752 0-18.944 8.704-18.944 18.944v76.8c-32.768 0-60.928-20.992-71.68-50.176-9.728 14.336-15.872 31.744-15.872 50.176 0 48.64 39.424 87.552 87.552 87.552v57.856c0 10.752 8.704 18.944 18.944 18.944 5.12 0 9.216-2.048 12.8-5.12l111.616-111.616c3.584-3.584 5.632-8.192 5.632-13.824 0.512-4.608-2.56-9.728-6.656-13.312z" />
<glyph unicode="&#xe624;" glyph-name="qimai-guanjiancizhishuduibi" d="M438.592 64h-259.584c-35.346 0-64 28.654-64 64v0 512c0 35.346 28.654 64 64 64v0h259.584v64h-259.584c-70.692 0-128-57.308-128-128v0-512c0-70.692 57.308-128 128-128v0h259.584v64zM805.632 64h46.144c35.346 0 64 28.654 64 64v0h64c0-70.692-57.308-128-128-128v0h-46.144v64zM741.632 64v-64h-145.472v64h145.472zM915.776 192v160h64v-160h-64zM915.776 416v160h64v-160h-64zM915.776 640c0 35.346-28.654 64-64 64v0h-46.144v64h46.144c70.692 0 128-57.308 128-128v0h-64zM741.632 704h-145.408v64h145.408v-64zM489.856 832h64v-896h-64zM274.24 555.392h55.744l114.432-342.784h-52.416l-27.2 85.952h-125.312l-27.264-85.888h-52.352l114.368 342.656zM254.144 344.64h96l-46.976 150.272h-1.664l-47.36-150.272zM620.096 555.392h137.024c29.76 0 53.248-8.192 70.016-24.512 15.488-15.36 23.424-36.032 23.424-61.952 0-19.2-4.16-35.456-12.16-48.896-8.353-12.606-20.068-22.384-33.872-28.167l-0.496-0.185c19.712-4.288 34.368-13.44 44.48-27.328 9.6-13.44 14.656-32.192 14.656-55.232 0-34.56-10.496-60.032-31.040-76.352-17.6-13.44-42.752-20.16-74.56-20.16h-137.472v342.784zM669.12 509.312v-97.92h75.008c20.992 0 35.648 4.288 44.416 11.968 8.384 8.128 12.992 21.12 12.992 38.848 0 16.32-4.608 28.352-12.992 35.52-9.216 7.68-23.424 11.52-43.52 11.52h-75.904zM669.12 365.312v-106.56h81.28c18.432 0 33.152 3.328 43.584 10.048 13.44 8.64 20.16 22.080 20.16 41.28 0 19.648-5.056 33.6-14.72 42.24-10.048 8.64-25.984 12.928-47.744 12.928h-82.56z" />
<glyph unicode="&#xe625;" glyph-name="xiazai" d="M959.488 382.976c-29.696 0-53.76-24.064-53.76-53.76v-286.72c0-14.336-5.632-27.648-15.872-37.888s-23.552-15.872-37.888-15.872h-680.448c-29.696 0-53.76 24.064-53.76 53.76v286.72c0 29.696-24.064 53.76-53.76 53.76s-53.76-24.064-53.76-53.76v-286.72c0-89.088 72.192-161.28 160.768-161.28h680.448c89.088 0 161.28 72.192 161.28 161.28v286.72c0.512 30.208-23.552 53.76-53.248 53.76zM475.136 184.32c10.24-10.24 24.064-15.872 37.888-15.872s27.648 5.12 37.888 15.872l305.664 305.664c20.992 20.992 20.992 54.784 0 75.776s-54.784 20.992-75.776 0l-212.992-212.48v477.696c0 29.696-24.064 53.76-53.76 53.76s-53.248-24.064-53.248-53.76v-480.256l-212.992 212.48c-20.992 20.992-54.784 20.992-75.776 0s-20.992-54.784 0-75.776l303.104-303.104z" />
<glyph unicode="&#xe626;" glyph-name="qianbao" d="M899.672 65.54c0-11.959-1.838-23.204-5.598-33.59-3.734-10.432-9.033-19.581-15.923-27.481-6.913-7.914-14.927-14.112-24.079-18.486-9.169-4.434-19.244-6.619-30.175-6.619h-625.39c-10.941 0-21.224 2.183-31.001 6.619-9.748 4.439-18.372 10.63-25.879 18.486s-13.325 17.056-17.675 27.481c-4.281 10.432-6.477 21.636-6.477 33.59v473.126c0 24.041 7.612 44.413 22.824 61.166 15.235 16.732 33.743 25.122 55.608 25.122h625.39c21.833 0 40.321-8.389 55.606-25.122 15.235-16.741 22.824-37.106 22.824-61.166v-128.946h-195.535c-21.816 0-40.321-8.218-55.606-24.646-15.235-16.472-22.824-36.708-22.824-60.671 0.564-16.445 3.703-31.001 9.474-43.63 4.571-10.735 12.195-20.553 22.869-29.356 10.63-8.871 25.969-13.297 46.066-13.297h195.535v-172.533h-0.002zM773.185 668.551h-422.097c33.475 17.705 65.109 34.753 94.818 51.226 73.714 37.783 98.963 51.644 124.139 65.621l-46.973-23.928c25.402 13.886 45.216 24.616 59.525 32.251 21.707 12.022 41.043 17.518 58.122 16.599 17.056-0.943 31.453-3.949 43.238-9.017 13.657-6.956 25.402-16.137 35.305-27.481l53.94-105.273zM646.802 324.413c0 11.993 3.99 22.1 12.068 30.303 8.059 8.226 17.976 12.351 29.739 12.351s21.703-4.054 29.728-12.351c8.059-8.218 12.095-18.337 12.095-30.303 0-12.022-3.99-22.283-12.095-30.829-8.032-8.492-17.963-12.756-29.728-12.756s-21.703 4.27-29.739 12.756c-8.032 8.566-12.068 18.843-12.068 30.829z" />
<glyph unicode="&#xe627;" glyph-name="icon21" d="M885.436 200.31h-149.335c-13.746 0-24.889 11.146-24.889 24.893 0 13.742 11.143 24.885 24.889 24.885h149.335c13.744 0 24.887-11.143 24.887-24.885 0-13.746-11.143-24.893-24.887-24.893zM885.436 349.647h-199.113c-13.746 0-24.889 11.139-24.889 24.887 0 13.746 11.143 24.889 24.889 24.889h199.113c13.744 0 24.887-11.143 24.887-24.889 0-13.748-11.143-24.887-24.887-24.887zM885.436 498.978h-199.113c-13.746 0-24.889 11.145-24.889 24.887 0 13.748 11.143 24.891 24.889 24.891h199.113c13.744 0 24.887-11.143 24.887-24.891 0-13.742-11.143-24.887-24.887-24.887zM661.434 150.534v-99.554c0-82.478-66.86-149.335-149.333-149.335h-248.889c-82.474 0-149.333 66.858-149.333 149.335v99.554c0 65.379 42.284 120.339 100.782 140.567-31.862 42.995-51.005 98.061-51.005 158.1 0 137.457 100.289 248.887 224 248.887s224-111.43 224-248.887c0-60.041-19.143-115.107-51.003-158.1 58.499-20.228 100.781-75.188 100.781-140.567zM561.876 449.201c0 109.968-78.002 199.109-174.222 199.109s-174.222-89.143-174.222-199.109c0-109.968 78.002-199.113 174.222-199.113 96.222 0 174.222 89.147 174.222 199.113zM611.656 138.087c0 52.914-40.158 96.994-93.973 108.707-36.684-29.15-81.491-46.484-130.027-46.484-48.538 0-93.343 17.334-130.027 46.484-53.817-11.713-93.973-55.793-93.973-108.707v-74.665c0-61.855 54.702-112.001 122.182-112.001h203.638c67.48 0 122.18 50.144 122.18 112.001v74.665zM736.101 100.752h149.335c13.744 0 24.887-11.139 24.887-24.887 0-13.744-11.143-24.885-24.887-24.885h-149.335c-13.746 0-24.889 11.141-24.889 24.885 0 13.748 11.143 24.887 24.889 24.887z" />
<glyph unicode="&#xe628;" glyph-name="lianxifangshi" horiz-adv-x="1030" d="M750.229-127.865c-65.802 0-150.831 44.004-210.541 81.238-91.292 58.213-170.661 121.616-242.693 192.457l0.199-0.195-24.236 24.371c-70.431 72.148-133.672 151.917-188.193 237.769l-3.527 5.944c-37.369 59.845-81.238 145.145-81.238 211.489 0 70.406 50.367 145.415 72.031 174.39 16.925 22.611 75.957 96.402 126.054 96.402 20.58 0 42.785-13.54 71.895-43.868 23.399-25.072 45.371-52.288 65.317-81.017l1.568-2.387c18.573-26.044 37.372-56.138 54.377-87.35l2.354-4.719c23.965-45.493 27.079-65.125 27.079-75.822-0.955-23.752-14.008-44.256-33.13-55.611l-0.312-0.172c-14.061-9.149-30.235-17.6-47.209-24.488l-1.94-0.696c-14.139-5.609-26.215-11.836-37.581-19.079l0.889 0.53c10.658-29.7 24.812-55.419 42.35-78.418l-0.513 0.701c29.35-42.732 59.831-80.134 93.065-114.881l-0.319 0.336c34.327-33.094 71.597-63.702 111.183-91.209l2.956-1.944c22.215-17.080 47.843-31.276 75.458-41.339l1.989-0.634c6.66 10.505 12.844 22.629 17.889 35.33l0.525 1.498c7.431 18.829 15.706 34.918 25.343 50.056l-0.701-1.178c11.474 19.453 31.925 32.545 55.506 33.573l0.142 0.005c10.696 0 30.193-2.843 75.551-27.079 35.87-19.138 65.88-37.72 94.646-57.953l-2.847 1.899c30.992-21.55 58.119-43.563 83.527-67.387l-0.394 0.366c30.193-29.246 43.733-51.45 43.733-72.166 0-50.367-73.52-109.535-95.996-126.595-28.839-21.799-103.713-72.301-174.119-72.301M339.302 188.827c68.716-67.708 144.628-128.473 226.376-180.936l5.557-3.338c73.926-45.764 139.187-71.895 178.858-71.895 35.474 0 85.976 21.663 135.396 58.085 20.626 15.103 38.716 31.518 54.95 49.63l0.291 0.331c7.884 8.275 14.323 18.013 18.856 28.753l0.235 0.628c-5.145 10.967-35.338 45.358-106.15 94.777-22.852 16.119-49.405 32.587-76.905 47.535l-4.333 2.155c-13.287 8.132-28.652 14.762-44.955 19.087l-1.215 0.274c-3.875-3.316-7.054-7.317-9.376-11.832l-0.102-0.218c-5.29-9.306-10.785-20.616-15.608-32.275l-0.775-2.116c-6.684-16.765-13.864-30.976-22.114-44.46l0.722 1.269c-9.599-17.711-27.66-29.759-48.614-30.73l-0.129-0.005h-0.677c-9.207 0-37.369 0.812-113.868 53.075-45.927 31.468-86.115 64.177-123.436 99.859l0.362-0.343c-35.377 36.937-68.127 77.080-97.539 119.703l-2.112 3.237c-52.127 76.634-52.669 104.932-52.804 114.274 0.28 21.709 12.455 40.512 30.295 50.216l0.304 0.152c12.28 7.654 26.534 14.922 41.412 20.974l1.915 0.689c13.712 5.595 24.977 11.089 35.844 17.205l-1.589-0.822c4.743 2.455 8.746 5.68 12.002 9.554l0.048 0.059c-4.602 17.619-11.234 33.075-19.803 47.226l0.441-0.785c-17.081 31.861-33.506 58.415-51.33 83.919l1.775-2.681c-48.743 70.948-82.998 101.412-93.965 106.557-11.499-4.88-21.333-11.502-29.67-19.65l0.018 0.018c-18.396-16.556-34.769-34.69-49.134-54.382l-0.692-0.995c-36.828-49.42-57.814-100.193-57.814-135.396 0-39.942 26.131-105.338 71.624-179.535 55.639-87.751 116.24-164.017 183.981-233.271l-0.248 0.255 23.694-23.83M697.831 405.46c-10.817 0.040-19.796 7.854-21.643 18.145l-0.020 0.134c-5.783 31.729-24.103 58.347-49.53 75.015l-0.431 0.265c-19.797 13.135-44.11 20.957-70.249 20.957-8.241 0-16.301-0.778-24.11-2.263l0.8 0.127c-0.647-0.067-1.398-0.105-2.158-0.105-12.263 0-22.205 9.941-22.205 22.205 0 10.288 6.996 18.941 16.49 21.463l0.155 0.035c9.302 1.785 20 2.806 30.937 2.806 34.981 0 67.523-10.446 94.676-28.388l-0.642 0.399c35.845-23.53 61.221-60.49 69.043-103.566l0.145-0.959c0.218-1.167 0.342-2.51 0.342-3.882 0-10.853-7.786-19.887-18.076-21.822l-0.138-0.022h-3.926M830.79 462.733c-10.817 0.040-19.796 7.854-21.643 18.145l-0.020 0.134c-11.221 61.461-46.714 113.018-95.973 145.308l-0.835 0.514c-38.055 25.308-84.812 40.382-135.090 40.382-15.81 0-31.271-1.49-46.252-4.339l1.536 0.243c-0.231-0.009-0.501-0.013-0.773-0.013-12.263 0-22.205 9.941-22.205 22.205 0 9.83 6.388 18.169 15.239 21.090l0.157 0.045c15.759 3.038 33.884 4.776 52.415 4.776 59.313 0 114.468-17.806 160.41-48.363l-1.066 0.667c60.075-39.238 102.69-100.931 116.054-172.899l0.251-1.626c0.272-1.305 0.428-2.804 0.428-4.339 0-11.028-8.040-20.179-18.578-21.91l-0.129-0.017h-3.926M1008.294 479.251c-10.817 0.040-19.796 7.854-21.643 18.145l-0.020 0.134c-18.895 105.143-79.459 193.405-163.629 248.66l-1.419 0.875c-64.522 42.77-143.747 68.238-228.921 68.238-27.013 0-53.427-2.562-79.014-7.455l2.616 0.416c-0.647-0.067-1.398-0.105-2.158-0.105-12.263 0-22.205 9.941-22.205 22.205 0 10.288 6.996 18.941 16.49 21.463l0.155 0.035c25.333 4.929 54.466 7.749 84.257 7.749 94.142 0 181.706-28.16 254.731-76.515l-1.716 1.068c95.37-62.618 162.897-160.944 183.752-275.545l0.386-2.558c0.218-1.167 0.342-2.51 0.342-3.882 0-10.853-7.786-19.887-18.076-21.822l-0.138-0.022h-3.926M1008.159 480.334" />
<glyph unicode="&#xe629;" glyph-name="home_normal" horiz-adv-x="1026" d="M513.79 772.594c52.554 0 103.472-10.266 151.338-30.511 46.295-19.581 87.897-47.639 123.652-83.394s63.814-77.359 83.395-123.653c20.246-47.866 30.51-98.784 30.51-151.338s-10.265-103.473-30.51-151.339c-19.581-46.295-47.64-87.897-83.395-123.654-35.755-35.755-77.358-63.813-123.652-83.394-47.866-20.246-98.784-30.51-151.339-30.51s-103.472 10.265-151.338 30.51c-46.295 19.581-87.898 47.64-123.653 83.394-35.755 35.756-63.813 77.359-83.394 123.654-20.246 47.866-30.51 98.784-30.51 151.339s10.265 103.472 30.51 151.338c19.58 46.295 47.639 87.898 83.394 123.653s77.359 63.813 123.653 83.394c47.866 20.245 98.783 30.51 151.338 30.51M513.789 895.39c-282.599 0-511.693-229.093-511.693-511.693s229.093-511.694 511.693-511.694 511.694 229.093 511.694 511.694-229.093 511.693-511.694 511.693zM344.881 383.734c0-93.166 75.526-168.691 168.691-168.691s168.691 75.526 168.691 168.691v0c0 93.166-75.526 168.691-168.691 168.691s-168.691-75.526-168.691-168.691v0z" />
<glyph unicode="&#xe62a;" glyph-name="jiahao" d="M970.745 436.633h-404.131v404.116c0 29.409-23.843 53.251-53.253 53.251s-53.253-23.841-53.253-53.251v-404.116h-404.133c-29.411 0-53.253-23.841-53.253-53.25 0-29.41 23.842-53.253 53.253-53.253h404.133v-404.115c0-29.407 23.842-53.249 53.253-53.249s53.253 23.842 53.253 53.249v404.115h404.131c29.413 0 53.255 23.843 53.255 53.253 0 29.409-23.842 53.25-53.255 53.25z" />
<glyph unicode="&#xe62b;" glyph-name="list" d="M63.787 608.091h127.023v-127.732h-127.023v127.732zM276.358 608.091h682.107v-127.732h-682.107v127.732zM63.787 352.314h127.023v-127.732h-127.023v127.732zM276.358 352.314h682.107v-127.732h-682.107v127.732zM63.787 96.536h127.023v-127.732h-127.023v127.732zM276.358 96.536h682.107v-127.732h-682.107v127.732z" />
<glyph unicode="&#xe62c;" glyph-name="shangchuan1" d="M803.84-76.8v0h-537.6c-153.6 15.36-266.24 138.24-266.24 291.84 0 163.84 133.12 291.84 291.84 291.84 5.12 0 10.24 0 15.36 0 46.080 117.76 153.6 194.56 276.48 194.56 163.84 0 291.84-133.12 291.84-291.84 0-5.12 0-15.36 0-20.48 87.040-35.84 148.48-128 148.48-225.28 0-122.88-92.16-225.28-220.16-240.64v0zM271.36-25.6h537.6c97.28 10.24 168.96 92.16 168.96 194.56 0 81.92-51.2 158.72-133.12 184.32l-20.48 5.12 5.12 25.6c0 10.24 5.12 20.48 5.12 25.6 0 133.12-107.52 245.76-245.76 245.76-107.52 0-204.8-71.68-235.52-179.2l-10.24-20.48h-25.6c-10.24 0-15.36 0-25.6 0-133.12 5.12-240.64-107.52-240.64-240.64 0-122.88 92.16-230.4 220.16-240.64zM476.16-25.6v194.56h-143.36l194.56 245.76 194.56-245.76h-148.48v-194.56h-97.28z" />
<glyph unicode="&#xe62d;" glyph-name="renyuanguanli" horiz-adv-x="1025" d="M246.629 636.672c0 105.76 87.488 193.312 193.248 193.312s193.312-87.552 193.312-193.312-87.552-193.28-193.312-193.28c-105.792 0-193.248 87.52-193.248 193.28zM123.237-51.232c-0.23-0.003-0.502-0.005-0.774-0.005-31.6 0-57.216 25.616-57.216 57.216 0 0.283 0.002 0.566 0.006 0.848v-0.043c0 193.28 149.536 353.056 338.784 371.232h39.84c43.712 3.424 105.664 14.784 138.112 43.776l14.816 10.816c61.984 51.136 98.304 123.904 98.304 204.064 0 142.112-116.608 258.688-262.048 258.688-134.752 0-251.264-116.576-251.264-258.688 0-80.16 36.352-152.928 98.336-204.064l18.176-10.816-18.144-7.392c-167.744-65.376-280.256-225.664-280.256-407.616-0.003-0.344-0.005-0.75-0.005-1.157 0-67.794 54.958-122.752 122.752-122.752 0.407 0 0.813 0.002 1.219 0.006h331.33c10.816 0 28.992 10.784 28.992 32.96 0 25.568-18.176 32.928-28.992 32.928h-331.968zM964.005 94.272c-54.56-7.36-94.944-51.040-94.944-109.056 0-10.816 3.424-25.6 7.392-33.024l-47.2-25.568-18.144 18.176c-21.664 14.816-39.808 21.568-61.984 21.568-18.272 0-39.808-7.328-61.984-21.568-7.392-7.328-14.784-10.816-18.24-18.176l-43.712 25.568c3.392 7.424 7.36 21.632 7.36 33.024 0 0.106 0.001 0.231 0.001 0.356 0 55.381-41.040 101.177-94.367 108.633l-0.578 0.066c0 7.424-3.456 21.632-3.456 36.448 0 10.816 3.456 25.6 3.456 36.384 54.496 7.424 94.944 51.2 94.944 109.152 0 10.848-3.392 25.568-7.36 32.928l47.2 25.632c3.392-3.424 10.72-10.816 18.176-14.816 21.536-14.752 39.808-21.568 58.016-21.568 18.144 0 36.352 7.36 57.92 21.568 7.456 7.36 14.784 10.816 18.272 14.816l47.168-25.632c-3.392-7.36-7.456-21.6-7.456-32.928 0-0.097 0-0.212 0-0.328 0-55.44 41.080-101.286 94.462-108.758l0.579-0.066c0-7.36 3.392-21.6 3.392-36.384 5.152-10.784 1.088-25.568 1.088-36.448zM1015.237 185.28c-3.488 18.24-18.272 32.992-32.992 32.992h-3.456c-32.896 0-57.92 25.6-57.92 57.984 0 7.392 3.392 18.24 3.392 21.6 7.328 18.176 0 39.84-14.816 51.168l-65.344 36.384h-18.24c-10.72 0-25.536-3.392-32.928-14.752-7.392-7.424-29.024-25.6-43.744-25.6-14.816 0-36.448 18.176-47.264 25.6-7.328 7.36-18.176 14.752-32.96 14.752-7.328 0-10.752 0-14.784-3.392l-69.312-36.384c-14.816-10.816-21.664-32.96-14.816-51.136 0 0 3.392-10.848 3.392-21.632 0.005-0.268 0.007-0.585 0.007-0.902 0-31.547-25.573-57.12-57.12-57.12-0.284 0-0.567 0.002-0.85 0.006h-3.445c-14.784 0-28.992-14.816-32.96-32.96 0-3.424-7.36-28.992-7.36-54.624 0-21.632 3.392-51.168 7.36-54.464 3.456-18.272 18.144-33.056 32.96-33.056h3.488c32.96 0 57.92-25.6 57.92-58.016 0-7.328-3.392-18.144-3.392-21.504-7.328-18.272 0-39.744 14.816-51.168l65.312-36.48c7.456 3.424 10.88 3.424 18.208 3.424 10.816 0 25.6 3.392 33.056 14.848 7.328 7.36 28.96 28.864 47.168 28.864 14.784 0 39.712-18.144 47.168-28.864 7.36-7.424 18.208-14.848 32.992-14.848 7.328 0 10.784 0 18.144 3.392l65.344 36.416c14.784 10.784 21.664 32.928 14.784 51.232 0 0-3.36 10.72-3.36 21.536 0 32.992 25.6 58.016 58.016 58.016h3.392c14.752 0 28.992 14.816 32.928 32.96 0 0 7.36 28.96 7.36 54.624-6.784 18.176-10.144 47.168-10.144 51.104zM749.189 83.52c-25.6 0-47.264 21.632-47.264 47.2 0 25.6 21.664 47.2 47.264 47.2 25.536 0 47.168-21.6 47.168-47.2 0.512-25.568-21.664-47.2-47.168-47.2zM767.333 229.056c-69.376 14.816-131.328-47.168-116.576-119.936 7.424-39.776 39.84-72.736 80.128-80.096 69.44-14.88 131.392 47.104 116.608 116.48-6.816 43.2-39.808 76.192-80.16 83.552z" />
<glyph unicode="&#xe62e;" glyph-name="101" d="M39.153 826.729v-903.529h963.765v903.529h-963.765zM99.388-16.565v123.482l162.635 168.659 105.412-117.459-171.671-177.694h-96.376zM942.682-16.565h-665.6l433.694 439.718 228.894-219.859v-219.859zM710.776 513.506l-304.188-301.176-144.565 150.588-162.635-168.659v572.235h843.294v-475.859l-231.906 222.871zM262.024 694.212c-51.2 0-90.353-39.153-90.353-90.353s39.153-90.353 90.353-90.353 90.353 39.153 90.353 90.353-39.153 90.353-90.353 90.353zM262.024 573.741c-18.071 0-30.118 12.047-30.118 30.118s12.047 30.118 30.118 30.118 30.118-12.047 30.118-30.118-12.047-30.118-30.118-30.118z" />
<glyph unicode="&#xe62f;" glyph-name="wenjian" d="M860.992 11.648h-698.112c-89.92 0.146-162.771 73.019-162.88 162.934v581.77h860.992c89.96-0.109 162.862-72.988 163.008-162.93v-418.894c-0.182-89.928-73.070-162.771-162.998-162.88h-0.010zM46.528 709.824v-535.232c0.073-64.23 52.122-116.279 116.345-116.352h698.119c64.245 0.036 116.316 52.107 116.352 116.348v418.82c-0.036 64.245-52.107 116.316-116.348 116.352h-814.468zM535.232 709.824h-535.232v23.232c0.109 89.925 72.96 162.799 162.866 162.944h279.31c51.328 0 93.056-41.728 93.056-93.12v-93.056zM48.896 756.352h439.872v46.528c-0.073 25.703-20.889 46.519-46.585 46.592h-279.303c-55.98-0.142-102.683-39.686-113.849-92.357l-0.135-0.763z" />
<glyph unicode="&#xe630;" glyph-name="cuowu-yuankuang-xianxing" d="M512 824c59.432 0 117.046-11.624 171.246-34.548 52.386-22.158 99.45-53.892 139.882-94.324s72.166-87.496 94.324-139.882c22.924-54.2 34.548-111.814 34.548-171.246s-11.624-117.046-34.548-171.246c-22.158-52.386-53.892-99.45-94.324-139.882s-87.496-72.166-139.882-94.324c-54.2-22.924-111.814-34.548-171.246-34.548s-117.046 11.624-171.246 34.548c-52.386 22.158-99.45 53.892-139.882 94.324s-72.166 87.496-94.324 139.882c-22.924 54.2-34.548 111.814-34.548 171.246s11.624 117.046 34.548 171.246c22.158 52.386 53.892 99.45 94.324 139.882s87.496 72.166 139.882 94.324c54.2 22.924 111.814 34.548 171.246 34.548M512 896c-282.77 0-512-229.23-512-512s229.23-512 512-512 512 229.23 512 512-229.23 512-512 512zM562.912 384l130.108 130.108c14.059 14.059 14.059 36.853 0 50.912s-36.853 14.059-50.912 0l-130.108-130.108-130.108 130.107c-14.059 14.059-36.853 14.059-50.912 0s-14.059-36.853 0-50.912l130.108-130.107-130.107-130.108c-14.059-14.059-14.059-36.853 0-50.912s36.853-14.059 50.912 0l130.107 130.108 130.108-130.108c14.059-14.059 36.853-14.059 50.912 0s14.059 36.853 0 50.912l-130.108 130.108z" />
<glyph unicode="&#xe631;" glyph-name="Dtuzhi" d="M703.999 223.999q0 96-89.92 97.92h-56.96v-195.84h54.4q92.48-1.28 92.48 97.92zM991.998 431.679h-96v240.32c0 0.036 0 0.079 0 0.122 0 6.748-2.822 12.836-7.351 17.149l-0.010 0.009-7.68 7.36-20.48 19.2-64 58.24-4.48 4.16c-27.2 24-49.6 44.16-66.56 58.24-9.92 8.32-17.6 14.4-23.36 18.56-2.874 2.157-6.123 4.178-9.545 5.908l-0.375 0.172c-3.45 1.816-7.539 2.882-11.878 2.882-0.099 0-0.199-0.001-0.298-0.002h0.015c-13.294-0.179-24.002-10.998-24.002-24.318 0-0.113 0.001-0.226 0.002-0.339v0.017-215.68h192v-192h-671.999v383.999h407.999c13.255 0 24 10.745 24 24s-10.745 24-24 24h-455.999v-431.999h-96v-407.679h96c0-0.095 0-0.207 0-0.32 0-66.097 53.582-119.68 119.68-119.68 0 0 0 0 0 0h648.319v120h96zM759.999 742.399l4.48-4.16 64-57.6 9.6-8.96h-134.080v120c15.040-12.8 33.92-29.44 56-49.28zM511.999 362.879h102.080q133.76 0 135.040-137.6t-137.6-136.32h-99.52zM274.88 115.52c22.468 39.393 52.227 72.115 87.713 97.295l0.927 0.624q58.24 40.96 55.68 72.64 0 39.68-47.68 39.68c-25.236-1.231-45.656-20.331-48.931-44.855l-0.029-0.265-42.24 18.56c12.5 39.492 48.82 67.616 91.708 67.616 1.51 0 3.011-0.035 4.504-0.104l-0.212 0.008q81.92-3.84 87.36-78.080 6.72-52.8-67.52-100.48c-25.422-17.693-47.248-38.197-65.76-61.456l-0.48-0.624h131.2v-37.12h-186.24zM847.999-48h-599.999c-0.095 0-0.207-0.001-0.32-0.001-39.588 0-71.68 32.092-71.68 71.68 0 0 0 0.001 0 0.001v0h671.999z" />
<glyph unicode="&#xe632;" glyph-name="yunshangchuan123" horiz-adv-x="1260" d="M585.807 326.498l-67.505-52.697c-8.507-8.822-33.713-8.822-42.22 8.901-16.857 17.566-8.428 35.052 8.507 43.953l126.582 96.571c8.428 8.901 25.285 8.901 42.142 0l126.582-96.571c0-8.901 8.428-26.388-8.507-43.953-8.507-8.901-16.857-17.566-25.364-17.566-8.428 0-16.857 0-16.857 8.822l-75.855 54.666v-410.23c0-19.929-8.507-39.857-33.713-39.857-16.857 0-33.713 19.929-33.713 39.857v408.103h-0.079zM309.169-31.114h-26.388c-158.799 0-282.151 142.572-282.151 311.926 0 178.018 132.175 320.591 290.816 311.611 52.775 177.94 202.673 302.789 370.215 302.789 185.029 0 343.591-142.415 387.702-347.215 123.353-26.782 211.574-142.415 211.574-284.83 0-160.295-114.53-293.809-255.685-293.809-44.111 0-132.254 0-229.218 80.030-17.566 17.802-17.566 44.583 0 53.406 17.644 17.802 35.289 17.802 52.933 0 70.498-71.286 132.254-62.385 167.463-62.385h8.822c105.787 0 185.108 97.91 185.108 222.602 0 115.712-79.321 213.701-176.207 222.523-17.644 0-26.466 17.802-35.21 26.782-26.466 178.018-158.641 311.611-317.361 311.611-140.997 0-273.25-115.633-308.46-276.007 0-17.802-17.566-26.782-44.111-26.782h-35.21c-114.452-0.079-202.673-106.969-202.673-240.561s88.222-240.482 202.673-240.482h17.644c35.21 0 79.321 0 140.997 62.306 17.566 17.802 35.21 17.802 52.775 0 17.644-17.723 17.644-35.525 0-53.327-70.42-71.129-132.096-80.108-176.049-80.108z" />
<glyph unicode="&#xe633;" glyph-name="tupian" d="M300.8 716.8c70.4 0 134.4-57.6 134.4-134.4 0-70.4-57.6-134.4-134.4-134.4-70.4 6.4-134.4 64-134.4 140.8 0 70.4 64 128 134.4 128zM51.2 838.4h921.6c19.2 0 38.4-19.2 38.4-38.4v-774.4c0-19.2-19.2-38.4-38.4-38.4h-921.6c-19.2 0-38.4 19.2-38.4 38.4v774.4c0 19.2 19.2 38.4 38.4 38.4zM934.4 761.6h-844.8v-550.4l179.2 179.2c6.4 6.4 25.6 6.4 32 0l140.8-134.4 204.8 204.8c6.4 6.4 25.6 6.4 32 0l256-256v556.8zM89.6 147.2v-83.2h844.8v70.4l-275.2 275.2-185.6-185.6 64-64c6.4-6.4 6.4-25.6 0-32s-25.6-6.4-32 0l-217.6 217.6-198.4-198.4zM300.8 672c-44.8 0-83.2-38.4-83.2-83.2 0-51.2 38.4-89.6 89.6-89.6s89.6 38.4 89.6 89.6c-6.4 44.8-44.8 83.2-96 83.2z" />
<glyph unicode="&#xe634;" glyph-name="shangchuandengdai" d="M512 813.714c198.912 0 366.19-135.186 415.159-318.647v5.504c0-22.729 18.414-41.142 41.143-41.142 22.71 0 41.143 18.413 41.143 41.142h1.078c-0.475 2.048-1.17 4.005-1.682 6.035-0.548 3.693-1.481 7.24-2.944 10.569-58.679 218.075-257.262 378.825-493.897 378.825-282.77 0-512-229.23-512-512s229.23-512 512-512c239.506 0 440.375 164.48 496.33 386.578l-0.568 0.128c0.988 3.53 1.683 7.187 1.683 11.027 0 22.729-18.432 41.142-41.143 41.142-20.462 0-37.303-14.976-40.485-34.56-47.835-185.16-215.716-322.030-415.817-322.030-237.33 0.001-429.714 192.385-429.714 429.715s192.384 429.714 429.714 429.714z" />
<glyph unicode="&#xe635;" glyph-name="renwuxuanshang" d="M64.356 772.46v-47.159h111.192v-509.924l347.541-219.833 328.062 219.73v510.028h108.489v47.158h-895.285zM803.988 241.352l-1.287-0.807-280.080-189.611-1.443 0.86-298.465 190.417v483.090h581.275v-483.949zM298.669 554.732h426.66v-47.159h-426.66c0 0 0 47.159 0 47.159zM298.669 426.44h426.66v-47.159h-426.66c0 0 0 47.159 0 47.159z" />
<glyph unicode="&#xe636;" glyph-name="bianji1" d="M852.731 711c-45.527 45.528-120.683 45.528-166.21 0l-497.908-497.907c-3.614-3.614-5.782-7.227-6.504-12.286l-38.301-164.765c-2.168-8.671 0.723-17.343 6.504-23.125 5.059-5.058 11.562-7.949 18.066-7.949 1.446 0 3.614 0 5.059 0.723l168.378 34.687c5.059 0.723 9.395 3.614 12.285 6.504l144.53 138.75c10.118 9.394 10.118 26.015 0.724 35.41-9.395 10.117-26.016 10.117-35.41 0.722l-138.75-134.413-122.851-25.293 27.46 119.238 404.687 404.686 112.734-112.734c9.394-9.395 26.015-9.395 36.132 0l70.82 70.82c22.403 22.402 33.965 51.308 33.965 83.105s-13.008 61.425-35.41 83.828zM817.321 580.2l-52.754-52.753-94.667 95.39 52.753 52.754c26.016 26.015 68.653 26.015 94.668 0 12.285-12.285 19.512-29.63 19.512-47.695s-7.227-34.688-19.512-47.696zM529.705 283.912c0-15.166 12.295-27.461 27.461-27.461s27.461 12.295 27.461 27.461v0c0 15.166-12.295 27.461-27.461 27.461s-27.461-12.295-27.461-27.461v0zM597.635 351.842c0-15.166 12.294-27.461 27.461-27.461s27.461 12.294 27.461 27.461v0c0 15.166-12.295 27.461-27.461 27.461s-27.461-12.295-27.461-27.461v0zM665.564 419.771c0-15.166 12.295-27.461 27.461-27.461s27.461 12.295 27.461 27.461v0c0 15.166-12.295 27.461-27.461 27.461s-27.461-12.295-27.461-27.461v0z" />
<glyph unicode="&#xe637;" glyph-name="tongyong-quan" d="M450.304 134.656c-10.064-10.122-23.999-16.386-39.397-16.386-10.394 0-20.122 2.855-28.441 7.823l0.254-0.14c-4.113 3.422-7.73 7.201-10.885 11.351l-0.123 0.169-228.608 228.608c-10.653 9.427-17.334 23.133-17.334 38.4s6.682 28.973 17.28 38.353l0.054 0.047c9.918 9.187 23.24 14.823 37.878 14.823 16.044 0 30.506-6.77 40.687-17.609l0.027-0.030 189.184-189.44 358.4 358.4c10.173 10.929 24.641 17.744 40.701 17.744 14.661 0 27.995-5.679 37.923-14.957l-0.032 0.029c10.653-9.427 17.334-23.133 17.334-38.4s-6.682-28.973-17.28-38.353l-0.054-0.047-397.568-400.384zM512 896c-282.77 0-512-229.23-512-512s229.23-512 512-512c282.77 0 512 229.23 512 512v0c0 282.77-229.23 512-512 512v0z" />
<glyph unicode="&#xe638;" glyph-name="chengyuan" horiz-adv-x="1094" d="M504.567 371.32c-144.886 0-262.34 117.454-262.34 262.34s117.454 262.34 262.34 262.34c144.886 0 262.34-117.454 262.34-262.34v0c0-144.886-117.454-262.34-262.34-262.34v0zM504.567 830.415c-108.665 0-196.755-88.090-196.755-196.755s88.090-196.755 196.755-196.755c108.665 0 196.755 88.090 196.755 196.755v0c0 108.665-88.090 196.755-196.755 196.755v0zM65.585-91.928h-65.585c1.147 288.903 235.613 522.661 524.676 522.661 106.331 0 205.275-31.63 287.935-85.995l-1.98 1.223-36.072-54.873c-70.523 46.368-156.981 73.963-249.884 73.963-252.807 0-457.889-204.34-459.089-456.865v-0.115zM0-95.426c0-17.99 14.584-32.574 32.574-32.574s32.574 14.584 32.574 32.574v0c0 17.99-14.584 32.574-32.574 32.574s-32.574-14.584-32.574-32.574v0zM760.567 318.415c0-17.99 14.584-32.574 32.574-32.574s32.574 14.584 32.574 32.574v0c0 17.99-14.584 32.574-32.574 32.574s-32.574-14.584-32.574-32.574v0zM657.161 240.588h218.617v-65.585h-218.617v65.585zM657.161 118.818h349.787v-65.585h-349.787v65.585zM657.161-28.748h437.233v-65.585h-437.233v65.585z" />
<glyph unicode="&#xe639;" glyph-name="jia1" d="M544 640h-64v-224h-224v-64h224v-224h64v224h224v64h-224zM512 896c-282.795 0-512-229.227-512-512 0-282.795 229.205-512 512-512s512 229.205 512 512c0 282.773-229.205 512-512 512zM512-48c-238.592 0-432 193.408-432 432s193.408 432 432 432 432-193.408 432-432c0-238.592-193.408-432-432-432z" />
<glyph unicode="&#xe63b;" glyph-name="shangchuan3" d="M761.6 96c-19.2 0-38.4 6.4-64 12.8-19.2 6.4-25.6 25.6-19.2 38.4 6.4 19.2 25.6 25.6 38.4 19.2 19.2-6.4 32-6.4 44.8-6.4 89.6 0 160 70.4 160 160 0 76.8-51.2 140.8-128 153.6l-19.2 6.4-6.4 12.8c-44.8 108.8-147.2 179.2-262.4 179.2s-224-70.4-268.8-179.2l-6.4-12.8-12.8-6.4c-76.8-12.8-128-83.2-128-153.6 0-89.6 70.4-160 160-160 12.8 0 25.6 0 44.8 6.4s32-6.4 38.4-19.2c6.4-19.2-6.4-32-19.2-38.4-25.6-6.4-44.8-12.8-64-12.8-121.6 0-224 102.4-224 224 0 102.4 70.4 185.6 160 217.6 57.6 121.6 179.2 198.4 320 198.4 134.4 0 262.4-76.8 320-198.4 96-25.6 160-115.2 160-217.6 0-121.6-102.4-224-224-224zM505.6-32c-19.2 0-32 12.8-32 32v409.6c0 19.2 12.8 32 32 32s32-12.8 32-32v-409.6c0-19.2-12.8-32-32-32zM646.4 224c-6.4 0-19.2 6.4-25.6 12.8l-115.2 134.4-121.6-134.4c-12.8-12.8-32-12.8-44.8 0s-12.8 32 0 44.8l140.8 160c6.4 6.4 19.2 12.8 25.6 12.8s19.2-6.4 25.6-12.8l140.8-166.4c12.8-12.8 12.8-32 0-44.8-6.4-6.4-19.2-6.4-25.6-6.4z" />
<glyph unicode="&#xe63c;" glyph-name="gongzuotai" d="M926.208 896h-830.407c-52.907 0-95.801-42.951-95.801-95.801v-574.919c0-52.793 42.894-95.801 95.801-95.801h339.854v-191.602h-276.082c-17.068-0.743-30.623-14.76-30.623-31.943s13.556-31.2 30.556-31.941l0.067-0.002h702.635c17.642 0 31.943 14.301 31.943 31.943s-14.301 31.943-31.943 31.943h-298.78v191.602h362.78c52.793 0 95.801 43.008 95.801 95.801v574.919c0 52.85-42.951 95.801-95.801 95.801zM958.123 225.28c0-17.636-14.336-31.915-31.915-31.915h-830.407c-17.626 0-31.915 14.289-31.915 31.915v0 574.919c0 17.636 14.222 31.915 31.915 31.915h830.407c17.636 0 31.915-14.279 31.915-31.915v-574.919z" />
<glyph unicode="&#xe63e;" glyph-name="tupian1" d="M853.161 3.451l-699.999 0.413c-0.606 0.001-1.211 0.032-1.813 0.092-24.849 2.485-47.825 14.060-64.696 32.594-16.991 18.665-26.349 42.855-26.349 68.112v526.711c0 55.808 45.403 101.211 101.211 101.211h691.645c55.808 0 101.21-45.403 101.21-101.211v-225.513c0-0.275-0.006-0.552-0.018-0.826-0.021-0.494-1.972-51.723 15.482-85.462 4.716-9.119 1.148-20.335-7.971-25.053-9.117-4.714-20.335-1.149-25.053 7.971-21.3 41.177-19.845 97.643-19.619 103.739v225.145c0 35.307-28.724 64.031-64.031 64.031h-691.644c-35.307 0-64.031-28.724-64.031-64.031v-526.711c0-32.755 24.321-59.958 56.718-63.62l208.431-0.412h490.529c35.307 0 64.031 28.725 64.031 64.032l-0.383 93.677c-0.104 1.75-1.587 19.548-19.549 42.5-0.050 0.063-0.098 0.126-0.147 0.19l-21.713 28.489-117.227 155.119c-0.415 0.551-38.995 50.852-86.272 45.534-38.335-4.314-75.955-45.164-108.79-118.131-17.615-39.141-34.65-68.269-52.082-89.046-17.607-20.986-35.68-33.519-55.251-38.317-43.423-10.638-81.050 18.995-120.886 50.372l-5.057 3.981c-46.555 36.578-68.751 28.224-158.33-59.602-7.331-7.188-19.101-7.071-26.289 0.26s-7.071 19.101 0.26 26.288c46.659 45.746 77.544 72.726 107.086 84.283 33.358 13.048 64.275 6.267 100.242-21.994l5.093-4.008c33.923-26.72 63.22-49.795 89.029-43.467 25.618 6.279 53.301 42.114 82.28 106.509 39.139 86.976 85.838 134.028 138.797 139.849 68.454 7.515 117.823-57.404 119.892-60.171l117.123-154.981 21.6-28.344c26.276-33.631 27.334-61.639 27.367-64.725 0.001-0.043 0.001-0.085 0.001-0.128l0.384-94.059c0.001-55.885-45.401-101.288-101.209-101.288zM312.328 449.032c-42.325 0-76.759 34.434-76.759 76.759s34.434 76.759 76.759 76.759 76.759-34.434 76.759-76.759-34.433-76.759-76.759-76.759zM312.328 565.372c-21.824 0-39.579-17.755-39.579-39.579s17.755-39.579 39.579-39.579 39.579 17.755 39.579 39.579-17.754 39.579-39.579 39.579z" />
<glyph unicode="&#xe642;" glyph-name="SVG-" d="M239.31 250.64c0-27.614 22.386-50 50-50s50 22.386 50 50v0c0 27.614-22.386 50-50 50s-50-22.386-50-50v0zM455.31 250.64c0-27.614 22.386-50 50-50s50 22.386 50 50v0c0 27.614-22.386 50-50 50s-50-22.386-50-50v0zM671.31 250.64c0-27.614 22.386-50 50-50s50 22.386 50 50v0c0 27.614-22.386 50-50 50s-50-22.386-50-50v0zM239.31 86.9c0-27.614 22.386-50 50-50s50 22.386 50 50v0c0 27.614-22.386 50-50 50s-50-22.386-50-50v0zM455.31 86.9c0-27.614 22.386-50 50-50s50 22.386 50 50v0c0 27.614-22.386 50-50 50s-50-22.386-50-50v0zM671.31 86.9c0-27.614 22.386-50 50-50s50 22.386 50 50v0c0 27.614-22.386 50-50 50s-50-22.386-50-50v0zM843 629.87c21.274-0.191 38.469-17.386 38.66-38.642v-599.778c-0.191-21.274-17.386-38.469-38.642-38.66h-675.428c-21.274 0.191-38.469 17.386-38.66 38.642v599.778c0.191 21.274 17.386 38.469 38.642 38.66h675.428M843 709.87h-675.41c-65.26 0-118.66-53.4-118.66-118.66v-599.76c0-65.26 53.4-118.66 118.66-118.66h675.41c65.26 0 118.66 53.4 118.66 118.66v599.76c0 65.26-53.4 118.66-118.66 118.66zM363.060 789.080v0q40 0 40-40v-170q0-40-40-40v0q-40 0-40 40v170q0 40 40 40zM641.31 789.080v0q40 0 40-40v-170q0-40-40-40v0q-40 0-40 40v170q0 40 40 40zM777.31 470.76h-544c-22.091 0-40-17.909-40-40s17.909-40 40-40v0h544c22.091 0 40 17.909 40 40s-17.909 40-40 40v0z" />
<glyph unicode="&#xe643;" glyph-name="gou" d="M1004.503 629.174l-587.072-594.161-17.19-16.193-17.19 16.193-363.553 367.949 118.537 119.987 262.179-265.38 485.754 491.61 118.537-120.005zM1004.503 629.174" />
<glyph unicode="&#xe644;" glyph-name="xiangmu" horiz-adv-x="1077" d="M957.889 595.627v-122.88h-837.884v122.88h-120.006v-122.88l89.825-600.747h898.246l89.825 600.747v122.88zM755.964 110.574h-431.158c-31.147 3.472-55.145 29.653-55.145 61.44s23.998 57.968 54.865 61.415l0.28 0.025h431.158c31.147-3.472 55.145-29.653 55.145-61.44s-23.998-57.968-54.865-61.415l-0.28-0.025zM740.873 896h-403.851v-61.799h403.851zM884.592 657.426h-689.853v-92.699h688.415zM815.607 788.211h-553.319v-76.89h554.038z" />
<glyph unicode="&#xe645;" glyph-name="biaoqing2" horiz-adv-x="1044" d="M515.205-128c-137.633 0-267.036 53.248-364.335 149.883-97.318 96.749-150.888 225.318-150.869 362.117 0 136.78 53.608 265.368 150.945 362.079 97.299 96.673 226.702 149.921 364.354 149.921 137.69 0 267.074-53.248 364.411-149.921 200.913-199.68 200.894-524.497 0-724.101-97.356-96.692-226.816-149.978-364.506-149.978 0 0 0 0 0 0s0 0 0 0 0 0 0 0zM515.3 829.269c-119.732 0-232.239-46.289-316.89-130.37-84.651-84.063-131.262-195.925-131.262-314.899-0.019-118.993 46.573-230.836 131.186-314.937 84.632-84.044 197.177-130.389 316.871-130.389 119.751 0 232.353 46.383 317.023 130.484 174.706 173.587 174.706 456.097 0 629.741-84.651 84.082-197.196 130.37-316.928 130.37 0 0 0 0 0 0s0 0 0 0 0 0 0 0zM332.174 244.262c0 0 60.378-95.896 183.012-95.896s203.055 95.896 203.055 95.896c0 0 45.587 0.152 45.568-47.938 0 0-79.038-111.881-248.623-111.881s-224.787 111.881-224.787 111.881c0 0-1.669 47.938 41.775 47.938 0 0 0 0 0 0s0 0 0 0zM365.454 548.636c-34.74 0-63.109-28.084-63.109-62.711 0-34.588 28.35-62.673 63.109-62.673 34.911 0 63.109 28.084 63.109 62.673 0 34.626-28.198 62.711-63.109 62.711 0 0 0 0 0 0s0 0 0 0 0 0 0 0zM688.792 548.636c-34.797 0-63.071-28.084-63.071-62.711 0-34.588 28.274-62.673 63.071-62.673 34.873 0 63.109 28.084 63.109 62.673 0 34.626-28.236 62.711-63.109 62.711 0 0 0 0 0 0s0 0 0 0 0 0 0 0z" />
<glyph unicode="&#xe647;" glyph-name="meiyoushuju" d="M92.16 35.84c-24.204 0-43.753 19.549-43.753 43.753v640.465c0 6.516 5.585 12.102 12.102 12.102h507.345c6.516 0 12.102-5.585 12.102-12.102v-595.782M92.16 26.531c-29.789 0-53.993 24.204-53.993 53.993v639.535c0 11.171 9.309 21.411 21.411 21.411h507.345c11.171 0 21.411-9.309 21.411-21.411v-595.782h-18.618v595.782c0 0.931-0.931 2.793-2.793 2.793h-507.345c-0.931 0-2.793-0.931-2.793-2.793v-639.535c0-19.549 15.825-35.375 35.375-35.375v-18.618zM92.16 35.84c24.204 0 44.684 19.549 44.684 43.753v44.684h501.76c0-48.407-40.029-88.436-88.436-88.436h-458.007zM549.236 26.531h-457.076v18.618c19.549 0 35.375 15.825 35.375 35.375v53.993h520.378v-9.309c-0.931-54.924-44.684-98.676-98.676-98.676zM132.189 45.149h417.047c40.029 0 73.542 30.72 78.196 69.818h-482.211v-35.375c0-13.033-4.655-25.135-13.033-34.444zM113.571 656.756h401.222v-85.644h-401.222zM418.909 495.709h-297.891c-5.585 0-9.309 3.724-9.309 9.309s3.724 9.309 9.309 9.309h297.891c5.585 0 9.309-3.724 9.309-9.309s-3.724-9.309-9.309-9.309zM353.745 421.236h-232.727c-5.585 0-9.309 3.724-9.309 9.309s3.724 9.309 9.309 9.309h232.727c5.585 0 9.309-3.724 9.309-9.309s-3.724-9.309-9.309-9.309zM288.582 346.764h-167.564c-5.585 0-9.309 3.724-9.309 9.309s3.724 9.309 9.309 9.309h167.564c5.585 0 9.309-3.724 9.309-9.309s-3.724-9.309-9.309-9.309zM335.127 272.291h-214.109c-5.585 0-9.309 3.724-9.309 9.309s3.724 9.309 9.309 9.309h214.109c5.585 0 9.309-3.724 9.309-9.309s-3.724-9.309-9.309-9.309zM413.324 342.109c0-85.345 69.186-154.531 154.531-154.531s154.531 69.186 154.531 154.531v0c0 85.345-69.186 154.531-154.531 154.531s-154.531-69.186-154.531-154.531v0zM496.175 259.258c-2.793 0-4.655 0.931-6.516 2.793-44.684 42.822-45.615 114.502-2.793 158.255 3.724 3.724 9.309 3.724 13.033 0s3.724-9.309 0-13.033c-36.305-37.236-34.444-95.884 1.862-132.189 3.724-3.724 3.724-9.309 0-13.033-0.931-1.862-2.793-2.793-5.585-2.793zM846.196 80.524l-100.538 100.538c-4.655 4.655-12.102 6.516-17.687 4.655l-41.891 41.891c28.858 29.789 46.545 69.818 46.545 113.571 0 90.298-73.542 163.84-163.84 163.84s-163.84-73.542-163.84-163.84c0-90.298 73.542-163.84 163.84-163.84 39.098 0 76.335 13.964 104.262 37.236l42.822-42.822c-1.862-6.516 0-13.033 4.655-17.687l100.538-100.538c3.724-3.724 8.378-5.585 13.033-5.585s9.309 1.862 13.033 5.585c6.516 8.378 6.516 19.549-0.931 26.996zM422.633 342.109c0 80.058 65.164 145.222 145.222 145.222s145.222-65.164 145.222-145.222-65.164-145.222-145.222-145.222-145.222 65.164-145.222 145.222zM964.422 528.291h-147.084l-67.025-45.615 2.793 45.615h-48.407c-16.756 0-29.789 13.033-29.789 29.789v69.818c0 16.756 13.033 29.789 29.789 29.789h258.793c16.756 0 29.789-13.033 29.789-29.789v-69.818c0.931-16.756-12.102-29.789-28.858-29.789zM740.073 464.058l3.724 54.924h-38.167c-21.411 0-39.098 17.687-39.098 39.098v69.818c0 21.411 17.687 39.098 39.098 39.098h258.793c21.411 0 39.098-17.687 39.098-39.098v-69.818c0-21.411-17.687-39.098-39.098-39.098h-144.291l-80.058-54.924zM705.629 647.447c-11.171 0-20.48-9.309-20.48-20.48v-69.818c0-11.171 9.309-20.48 20.48-20.48h58.647l-2.793-36.305 53.062 36.305h149.876c11.171 0 20.48 9.309 20.48 20.48v69.818c0 11.171-9.309 20.48-20.48 20.48h-258.793zM737.28 587.869c0-0.001 0-0.003 0-0.004 0-9.254 7.502-16.756 16.756-16.756s16.756 7.502 16.756 16.756c0 0.001 0 0.003 0 0.004v0c0 0.001 0 0.003 0 0.004 0 9.254-7.502 16.756-16.756 16.756s-16.756-7.502-16.756-16.756c0-0.001 0-0.003 0-0.004v0zM821.062 587.869c0-0.001 0-0.003 0-0.004 0-9.254 7.502-16.756 16.756-16.756s16.756 7.502 16.756 16.756c0 0.001 0 0.003 0 0.004v0c0 0.001 0 0.003 0 0.004 0 9.254-7.502 16.756-16.756 16.756s-16.756-7.502-16.756-16.756c0-0.001 0-0.003 0-0.004v0zM904.844 587.869c0-9.254 7.502-16.756 16.756-16.756s16.756 7.502 16.756 16.756v0c0 9.254-7.502 16.756-16.756 16.756s-16.756-7.502-16.756-16.756v0z" />
<glyph unicode="&#xe648;" glyph-name="hetong" d="M693.756 482.095c-144.178 0-265.59-117.669-265.59-265.704s117.618-265.705 265.59-265.705c147.974 0 265.593 117.67 265.593 265.705 3.793 148.036-117.62 265.704-265.593 265.704zM693.752 6.209c-115.75 0-209.799 94.028-209.799 209.757 0 115.726 94.048 209.754 209.8 209.754s209.799-94.028 209.799-209.754c0-115.728-94.050-209.757-209.8-209.757zM204.546 649.318h391.526v-55.682h-391.526l3.486 39.929-3.486 15.753zM204.54 509.468h307.276v-55.684h-307.276v55.686zM204.526 341.847h139.67v-55.682h-139.67l3.506 17.218-3.506 38.464zM394.454 6.587h-273.958v754.913h615.116l0.984-214.234c15.104 0 39.625-3.752 54.575-3.752v243.886c0 15.008-14.95 30.017-29.903 30.017h-666.498c-15.104 0-30.204-15.009-30.204-30.017v-806.324c0-15.25 14.994-30.492 29.99-30.492h333.608c-14.993 19.057-16.743 40.998-28.070 56.003h-5.64zM846.086 262.107c-3.777 11.257-11.33 15.010-22.653 18.762l-71.734 11.257-33.98 63.784c-7.552 18.762-37.754 18.762-49.080 0l-33.98-63.784-71.734-11.257c-11.327 0-18.878-7.504-22.653-18.761-3.775-11.253 0-18.758 7.552-26.262l52.855-48.78-7.552-75.040c0-11.257 3.777-18.762 11.329-26.266 7.549-7.503 18.876-7.503 30.202-3.749l64.181 33.767 64.185-33.767c3.775-3.754 7.55-3.754 11.327-3.754 7.55 0 11.324 3.754 15.101 3.754 7.549 7.502 11.327 15.006 11.327 26.262l-11.327 71.289 52.855 48.776c3.779 11.26 3.779 22.517 3.779 33.77zM736.596 209.581c-7.55-7.504-7.55-15.010-7.55-22.513l3.775-33.77-26.428 18.761c-3.777 3.752-7.552 3.752-11.327 3.752s-7.552 0-11.327-3.752l-30.204-15.009 3.777 30.018c0 7.504 0 18.761-7.552 22.513l-22.653 22.51 33.98 3.755c7.552 0 15.1 7.504 18.877 15.009l15.101 30.014 15.101-30.014c3.777-7.504 11.326-11.257 18.878-15.010l33.98-3.754-26.429-22.51z" />
<glyph unicode="&#xe649;" glyph-name="more-br" d="M863.476 738.036c-94.566 94.566-220.299 146.647-354.036 146.647s-259.469-52.081-354.036-146.647c-94.566-94.566-146.647-220.299-146.647-354.036s52.081-259.469 146.647-354.036c94.566-94.566 220.297-146.645 354.036-146.645 133.736 0 259.469 52.081 354.036 146.645s146.647 220.299 146.647 354.036-52.081 259.469-146.647 354.036zM509.44-75.723c-253.491 0-459.723 206.232-459.723 459.723s206.232 459.723 459.723 459.723c253.491 0 459.723-206.232 459.723-459.723s-206.232-459.723-459.723-459.723zM189.46 436.31h104.62v-104.62h-104.62zM724.287 436.31h105.134v-104.62h-105.134zM466.344 436.31h104.622v-104.62h-104.622z" />
<glyph unicode="&#xe64a;" glyph-name="icon-project" d="M830.956 608.468c0 52.881-43.011 95.893-95.891 95.893h-575.362c-52.875 0-95.892-43.012-95.892-95.893v-575.358c0-52.876 43.017-95.893 95.892-95.893h575.362c52.88 0 95.891 43.017 95.891 95.893v575.358zM159.703 640.436h575.362c17.606 0 31.967-14.361 31.967-31.968v-159.817h-639.291v159.817c0 17.607 14.355 31.968 31.962 31.968zM735.065 1.146h-575.362c-17.607 0-31.962 14.361-31.962 31.963v351.612h639.291v-351.612c0-17.602-14.361-31.963-31.967-31.963zM703.574 576.505h-63.931v-63.93h63.931v63.93zM223.633 512.575h287.712c17.634 0 31.928 14.362 31.928 31.968 0 17.668-14.295 31.961-31.928 31.961h-287.712c-17.635 0-31.934-14.294-31.934-31.961 0-17.606 14.3-31.968 31.934-31.968zM862.924 832.221h-575.36c-52.881 0-95.864-43.017-95.864-95.892h63.896c0 17.607 14.361 31.962 31.968 31.962h575.361c17.635 0 31.963-14.355 31.963-31.962v-575.356c0-17.606-14.328-31.972-31.963-31.972v-63.924c52.876 0 95.893 43.011 95.893 95.896v575.356c-0.001 52.875-43.018 95.892-95.894 95.892z" />
<glyph unicode="&#xe64b;" glyph-name="wenjianjia1" d="M862.339 651.489c-14.203 0-23.672-9.469-23.672-23.672s9.469-23.672 23.672-23.672c26.039 0 47.343-21.304 47.343-47.343v-82.85h-797.731v175.17c0 26.039 21.304 47.343 47.343 47.343h168.068c11.836 0 23.672-2.367 35.507-9.469l132.561-75.749c9.469-7.101 23.672-9.469 35.507-9.469h210.677c14.203 0 23.672 9.469 23.672 23.672s-9.469 23.672-23.672 23.672h-210.677c-4.734 0-7.101 0-11.836 2.367l-132.561 75.749c-16.57 9.469-37.874 16.57-59.179 16.57h-168.068c-52.077 0-94.686-42.609-94.686-94.686v-563.383c0-52.077 42.609-94.686 94.686-94.686h703.045c52.077 0 94.686 42.609 94.686 94.686v471.064c0 52.077-42.609 94.686-94.686 94.686zM909.682 88.106c0-26.039-21.304-47.343-47.343-47.343h-703.045c-26.039 0-47.343 21.304-47.343 47.343v340.87h795.364v-340.87z" />
<glyph unicode="&#xe64c;" glyph-name="wancheng" horiz-adv-x="1025" d="M512 812c-282.8 0-512-229.2-512-512s229.2-512 512-512 512 229.2 512 512c0 282.8-229.3 512-512 512zM492.2 44l-236.2 253.4 60.5 51.2 136.6-113c56 70.2 180.2 209.6 351.6 320.4l14.4-35.1c-157.3-152.5-286.1-367.2-326.9-476.9z" />
<glyph unicode="&#xe64f;" glyph-name="chakanmima" d="M271.258 678.993c-4.52 15.824 4.521 33.908 20.345 38.429s33.907-4.521 38.428-20.345l22.605-70.075c4.52-15.823-4.521-33.907-20.345-38.428-15.823-4.521-33.907 4.52-38.428 20.344l-22.605 70.075zM481.483 742.287c0 15.823 13.563 29.386 31.647 29.386s29.387-13.563 29.387-29.386l-2.26-99.461c0-15.824-13.564-29.387-31.648-29.387-15.823 0-29.386 13.563-29.386 31.647l2.26 97.201zM868.026 636.044c9.042 13.563 27.126 20.345 42.95 11.303 13.563-9.042 20.344-27.126 11.302-42.95l-31.647-54.251c-9.042-13.563-27.125-20.345-42.949-11.303-13.563 9.042-20.344 27.126-11.302 42.95l31.646 54.251zM696.23 708.38c4.52 15.823 22.604 24.865 38.428 20.344s24.865-22.605 20.344-38.428l-22.605-72.336c-4.52-15.823-22.605-24.865-38.428-20.344s-24.865 22.605-20.344 38.428l22.605 72.336zM103.982 597.616c-9.042 13.563-4.52 33.907 11.303 42.95 15.823 6.78 33.907 2.26 42.949-11.303l31.647-54.252c9.042-13.563 4.52-33.907-11.303-42.95-13.563-9.041-33.907-4.52-42.949 11.303l-31.647 54.252zM513.13 91.267c-133.368 0-257.695 22.605-352.636 63.294-101.721 45.209-158.234 106.243-158.234 174.057s56.513 128.848 158.234 174.057c94.94 40.69 219.268 63.294 352.636 63.294s257.696-22.605 352.636-63.294c101.722-45.21 158.234-106.242 158.234-174.057s-56.512-128.848-158.234-174.057c-94.94-40.689-219.267-63.294-352.636-63.294zM513.13 507.197c-124.326 0-241.872-20.345-330.030-58.773-79.118-33.907-124.327-76.857-124.327-119.806s45.21-85.898 124.326-119.806c88.16-38.428 205.705-58.772 330.031-58.772s241.872 20.344 330.031 58.772c79.117 33.908 124.327 76.857 124.327 119.806s-45.21 85.899-124.327 119.806c-88.159 38.428-205.704 58.772-330.030 58.772zM513.13 143.258c-101.722 0-185.36 83.638-185.36 185.36s83.638 185.36 185.36 185.36c101.722 0 185.36-83.638 185.36-185.36-2.26-103.982-83.638-185.36-185.36-185.36zM513.13 452.945c-70.075 0-126.587-56.512-126.587-126.587s56.512-126.588 126.587-126.588 126.587 56.513 126.587 126.588c-2.26 70.075-58.772 126.587-126.587 126.587zM434.013 290.19h-6.781c-15.824 4.52-24.866 18.084-22.605 33.907 11.302 49.73 49.73 90.42 99.461 103.982 15.824 4.521 31.647-4.52 36.168-20.344 4.521-15.823-4.52-31.647-20.344-36.168-29.387-9.042-49.731-31.646-56.512-61.033-4.521-11.302-15.824-20.344-29.387-20.344z" />
<glyph unicode="&#xe652;" glyph-name="sousuo" d="M424.024 129.902c-91.619 0-177.754 35.679-242.538 100.464-133.735 133.737-133.735 351.344 0 485.078 64.784 64.784 150.919 100.462 242.538 100.462s177.754-35.677 242.539-100.462c133.733-133.735 133.735-351.34 0-485.078-64.785-64.783-150.922-100.464-242.539-100.464zM424.024 699.915c-60.637 0-117.643-23.613-160.523-66.489-88.512-88.51-88.51-232.53 0-321.040 42.876-42.876 99.885-66.491 160.523-66.491s117.643 23.614 160.523 66.491c88.51 88.51 88.51 232.53 0 321.040-42.876 42.876-99.885 66.489-160.523 66.489zM886.838-47.904c-14.842 0-29.684 5.663-41.010 16.986l-261.286 261.285c-22.647 22.649-22.647 59.369 0 82.018 22.647 22.647 59.37 22.647 82.018 0l261.286-261.286c22.647-22.649 22.647-59.369 0-82.018-11.325-11.322-26.167-16.985-41.010-16.985z" />
<glyph unicode="&#xe653;" glyph-name="bofang" d="M852.728 503.553c104.27-66.027 104.214-173.112 0-239.103l-570.839-361.469c-104.27-66.027-188.798-23.034-188.798 95.882v770.277c0 118.981 84.584 161.873 188.798 95.882l570.839-361.469z" />
<glyph unicode="&#xe654;" glyph-name="shenglve-" d="M228.764 448.887c-35.832 0-64.887-29.043-64.887-64.887 0-35.824 29.055-64.887 64.887-64.887s64.886 29.063 64.886 64.887c0 35.844-29.050 64.887-64.886 64.887zM520.752 448.887c-35.832 0-64.887-29.043-64.887-64.887 0-35.824 29.055-64.887 64.887-64.887 35.836 0 64.891 29.063 64.891 64.887 0 35.844-29.055 64.887-64.891 64.887zM812.744 448.887c-35.832 0-64.887-29.043-64.887-64.887 0-35.824 29.055-64.887 64.887-64.887s64.887 29.063 64.887 64.887c0 35.844-29.055 64.887-64.887 64.887zM812.744 448.887" />
<glyph unicode="&#xe655;" glyph-name="jingao" d="M511.999-127.976c282.736 0 511.974 229.21 511.974 511.975s-229.239 511.975-511.974 511.975c-282.736 0-511.975-229.211-511.975-511.975s229.239-511.975 511.975-511.975zM511.999 839.089c250.932 0 455.090-204.157 455.090-455.090s-204.158-455.090-455.090-455.090c-250.933 0-455.090 204.158-455.090 455.090 0 250.933 204.157 455.090 455.090 455.090zM511.999 66.96c39.193 0 71.108 31.886 71.108 71.108 0 39.219-31.915 71.108-71.108 71.108s-71.108-31.888-71.108-71.108c0-39.221 31.915-71.108 71.108-71.108zM511.999 274.394c31.414 0 56.887 25.471 56.887 56.888v312.873c0 31.414-25.472 56.886-56.887 56.886s-56.887-25.471-56.887-56.886v-312.874c0-31.417 25.471-56.887 56.887-56.887z" />
<glyph unicode="&#xe657;" glyph-name="bar-chart" d="M915.2 89.408c24.64 0 44.8-20.096 44.8-44.672-0.073-24.7-20.095-44.7-44.797-44.736h-806.403c-24.705 0.036-44.727 20.036-44.8 44.729v0.007c0 24.576 20.16 44.672 44.8 44.672h806.4zM277.824 155.328c-23.171 0.072-41.939 18.818-42.048 41.974v349.898c0 23.040 18.944 41.92 42.048 41.92h5.632c23.040 0 41.984-18.816 41.984-41.92v-349.888c0-23.040-18.88-41.92-41.984-41.92h-5.696zM740.544 155.328c-23.158 0.073-41.911 18.826-41.984 41.977v260.487c0 23.040 18.88 41.92 41.984 41.92h5.632c23.104 0 41.984-18.88 41.984-41.92v-260.48c0-23.040-18.88-41.92-41.984-41.92h-5.632zM506.304 155.328c-23.143 0.108-41.875 18.841-41.984 41.974v528.778c0 23.040 18.88 41.92 41.984 41.92h5.696c23.040 0 41.984-18.88 41.984-41.92v-528.768c0-23.040-18.88-41.92-41.984-41.92h-5.76z" />
</font>
</defs>
</svg>
